M48
; DRILL file {KiCad (6.0.5)} date Thu Nov  7 13:37:20 2024
; FORMAT={-:-/ absolute / inch / decimal}
; #@! TF.CreationDate,2024-11-07T13:37:20-06:00
; #@! TF.GenerationSoftware,Kicad,Pcbnew,(6.0.5)
; #@! TF.FileFunction,Plated,1,2,PTH
FMAT,2
INCH
; #@! TA.AperFunction,Plated,PTH,ViaDrill
T1C0.0157
; #@! TA.AperFunction,Plated,PTH,ComponentDrill
T2C0.0157
; #@! TA.AperFunction,Plated,PTH,ComponentDrill
T3C0.0236
; #@! TA.AperFunction,Plated,PTH,ComponentDrill
T4C0.0315
; #@! TA.AperFunction,Plated,PTH,ComponentDrill
T5C0.0394
; #@! TA.AperFunction,Plated,PTH,ComponentDrill
T6C0.0433
%
G90
G05
T1
X2.8Y-2.7
X3.3839Y-3.1486
X3.4242Y-5.1939
X3.6Y-4.8
X3.6Y-4.9
X3.626Y-5.1663
X3.7018Y-1.8297
X3.8Y-4.3
X4.0Y-2.8
X4.2362Y-3.1604
X4.2441Y-3.2333
X4.2579Y-1.8898
X4.5Y-2.7
X4.6329Y-3.3445
X4.6339Y-5.4587
X4.6388Y-2.8681
X4.6388Y-3.0187
X4.7Y-5.1
X4.7382Y-3.5778
X4.8Y-3.5
X4.815Y-3.3898
X4.9Y-3.2
X4.9Y-3.6
X4.9Y-3.7
X4.9124Y-2.999
X4.9439Y-2.1014
X5.0325Y-2.9941
X5.2697Y-3.2441
X5.3Y-3.6
X5.3022Y-2.5443
X5.3081Y-3.1466
X5.314Y-2.6457
X5.4124Y-3.6309
X5.4341Y-3.3616
X5.4813Y-2.5945
X5.5079Y-3.5758
X5.5679Y-3.0896
X5.5945Y-3.1969
X5.6Y-3.5
X5.6Y-3.7
X5.6Y-3.8
X5.6142Y-3.3091
X5.6722Y-3.3907
X5.6988Y-2.3937
X5.751Y-4.3041
X5.812Y-4.2087
X5.8612Y-2.3484
X5.8622Y-4.123
X5.9026Y-3.5138
X5.9144Y-4.0404
X5.9154Y-3.0049
X5.9262Y-3.3632
X5.9557Y-2.8986
X5.9557Y-3.5138
X6.0138Y-3.9439
X6.0226Y-2.5965
X6.0715Y-2.6821
T2
X3.8829Y-1.8053
X3.8829Y-1.8585
X3.9163Y-1.8053
X3.9163Y-1.8585
X3.9498Y-1.8053
X3.9498Y-1.8585
X3.9833Y-1.8053
X3.9833Y-1.8585
X4.0167Y-1.8053
X4.0167Y-1.8585
X4.0502Y-1.8053
X4.0502Y-1.8585
X4.0837Y-1.8053
X4.0837Y-1.8585
X4.1171Y-1.8053
X4.1171Y-1.8585
T4
X4.3Y-3.4
X4.5Y-3.4
T5
X2.8268Y-2.2008
X2.8268Y-2.3008
X2.8268Y-2.4008
X2.8268Y-2.5008
X2.8268Y-2.6008
X3.1508Y-3.0512
X3.1508Y-3.1512
X3.1508Y-3.2512
X3.1508Y-3.3512
X3.1508Y-3.4512
X3.1508Y-3.5512
X3.1508Y-3.6512
X3.1508Y-3.7512
X3.1508Y-3.8512
X3.1508Y-3.9512
X3.2508Y-3.0512
X3.2508Y-3.1512
X3.2508Y-3.2512
X3.2508Y-3.3512
X3.2508Y-3.4512
X3.2508Y-3.5512
X3.2508Y-3.6512
X3.2508Y-3.7512
X3.2508Y-3.8512
X3.2508Y-3.9512
X3.2732Y-4.851
X3.2732Y-4.951
X3.2732Y-5.051
X3.2732Y-5.151
X3.2732Y-5.251
X3.2732Y-5.351
X5.7Y-2.5
X5.7Y-2.6
X5.7Y-2.7
X5.7Y-2.8
X5.7Y-2.9
X5.7Y-3.0
X5.7Y-3.1
X5.7Y-3.2
X5.8Y-2.5
X5.8Y-2.6
X5.8Y-2.7
X5.8Y-2.8
X5.8Y-2.9
X5.8Y-3.0
X5.8Y-3.1
X5.8Y-3.2
X6.201Y-3.551
X6.201Y-3.651
X6.201Y-3.751
X6.201Y-3.851
X6.201Y-3.951
X6.201Y-4.051
T6
X3.172Y-4.3114
X3.172Y-4.4886
X3.428Y-4.3114
X3.428Y-4.4886
X4.272Y-2.4
X4.272Y-2.5772
X4.272Y-2.8114
X4.272Y-2.9886
X4.528Y-2.4
X4.528Y-2.5772
X4.528Y-2.8114
X4.528Y-2.9886
X5.0114Y-5.1114
X5.0114Y-5.3673
X5.1886Y-5.1114
X5.1886Y-5.3673
T3
G00X3.8297Y-1.7026
M15
G01X3.8297Y-1.6711
M16
G05
G00X3.8297Y-1.8494
M15
G01X3.8297Y-1.7904
M16
G05
G00X4.1703Y-1.7026
M15
G01X4.1703Y-1.6711
M16
G05
G00X4.1703Y-1.8494
M15
G01X4.1703Y-1.7904
M16
G05
T0
M30
