%TF.GenerationSoftware,KiCad,Pcbnew,(6.0.5)*%
%TF.CreationDate,2024-11-07T13:37:00-06:00*%
%TF.ProjectId,FinalPCBBoard1,46696e61-6c50-4434-9242-6f617264312e,rev?*%
%TF.SameCoordinates,Original*%
%TF.FileFunction,Legend,Bot*%
%TF.FilePolarity,Positive*%
%FSLAX46Y46*%
G04 Gerber Fmt 4.6, Leading zero omitted, Abs format (unit mm)*
G04 Created by KiCad (PCBNEW (6.0.5)) date 2024-11-07 13:37:00*
%MOMM*%
%LPD*%
G01*
G04 APERTURE LIST*
%ADD10C,0.150000*%
G04 APERTURE END LIST*
D10*
X161936904Y-42324761D02*
X161794047Y-42372380D01*
X161555952Y-42372380D01*
X161460714Y-42324761D01*
X161413095Y-42277142D01*
X161365476Y-42181904D01*
X161365476Y-42086666D01*
X161413095Y-41991428D01*
X161460714Y-41943809D01*
X161555952Y-41896190D01*
X161746428Y-41848571D01*
X161841666Y-41800952D01*
X161889285Y-41753333D01*
X161936904Y-41658095D01*
X161936904Y-41562857D01*
X161889285Y-41467619D01*
X161841666Y-41420000D01*
X161746428Y-41372380D01*
X161508333Y-41372380D01*
X161365476Y-41420000D01*
X160936904Y-41705714D02*
X160936904Y-42705714D01*
X160936904Y-41753333D02*
X160841666Y-41705714D01*
X160651190Y-41705714D01*
X160555952Y-41753333D01*
X160508333Y-41800952D01*
X160460714Y-41896190D01*
X160460714Y-42181904D01*
X160508333Y-42277142D01*
X160555952Y-42324761D01*
X160651190Y-42372380D01*
X160841666Y-42372380D01*
X160936904Y-42324761D01*
X159889285Y-42372380D02*
X159984523Y-42324761D01*
X160032142Y-42277142D01*
X160079761Y-42181904D01*
X160079761Y-41896190D01*
X160032142Y-41800952D01*
X159984523Y-41753333D01*
X159889285Y-41705714D01*
X159746428Y-41705714D01*
X159651190Y-41753333D01*
X159603571Y-41800952D01*
X159555952Y-41896190D01*
X159555952Y-42181904D01*
X159603571Y-42277142D01*
X159651190Y-42324761D01*
X159746428Y-42372380D01*
X159889285Y-42372380D01*
X159270238Y-41705714D02*
X158889285Y-41705714D01*
X159127380Y-41372380D02*
X159127380Y-42229523D01*
X159079761Y-42324761D01*
X158984523Y-42372380D01*
X158889285Y-42372380D01*
X158555952Y-42372380D02*
X158555952Y-41705714D01*
X158555952Y-41372380D02*
X158603571Y-41420000D01*
X158555952Y-41467619D01*
X158508333Y-41420000D01*
X158555952Y-41372380D01*
X158555952Y-41467619D01*
X158222619Y-41705714D02*
X157841666Y-41705714D01*
X158079761Y-42372380D02*
X158079761Y-41515238D01*
X158032142Y-41420000D01*
X157936904Y-41372380D01*
X157841666Y-41372380D01*
X157603571Y-41705714D02*
X157365476Y-42372380D01*
X157127380Y-41705714D02*
X157365476Y-42372380D01*
X157460714Y-42610476D01*
X157508333Y-42658095D01*
X157603571Y-42705714D01*
X155413095Y-42372380D02*
X155746428Y-41896190D01*
X155984523Y-42372380D02*
X155984523Y-41372380D01*
X155603571Y-41372380D01*
X155508333Y-41420000D01*
X155460714Y-41467619D01*
X155413095Y-41562857D01*
X155413095Y-41705714D01*
X155460714Y-41800952D01*
X155508333Y-41848571D01*
X155603571Y-41896190D01*
X155984523Y-41896190D01*
X154603571Y-42324761D02*
X154698809Y-42372380D01*
X154889285Y-42372380D01*
X154984523Y-42324761D01*
X155032142Y-42229523D01*
X155032142Y-41848571D01*
X154984523Y-41753333D01*
X154889285Y-41705714D01*
X154698809Y-41705714D01*
X154603571Y-41753333D01*
X154555952Y-41848571D01*
X154555952Y-41943809D01*
X155032142Y-42039047D01*
X154127380Y-42372380D02*
X154127380Y-41705714D01*
X154127380Y-41800952D02*
X154079761Y-41753333D01*
X153984523Y-41705714D01*
X153841666Y-41705714D01*
X153746428Y-41753333D01*
X153698809Y-41848571D01*
X153698809Y-42372380D01*
X153698809Y-41848571D02*
X153651190Y-41753333D01*
X153555952Y-41705714D01*
X153413095Y-41705714D01*
X153317857Y-41753333D01*
X153270238Y-41848571D01*
X153270238Y-42372380D01*
X152651190Y-42372380D02*
X152746428Y-42324761D01*
X152794047Y-42277142D01*
X152841666Y-42181904D01*
X152841666Y-41896190D01*
X152794047Y-41800952D01*
X152746428Y-41753333D01*
X152651190Y-41705714D01*
X152508333Y-41705714D01*
X152413095Y-41753333D01*
X152365476Y-41800952D01*
X152317857Y-41896190D01*
X152317857Y-42181904D01*
X152365476Y-42277142D01*
X152413095Y-42324761D01*
X152508333Y-42372380D01*
X152651190Y-42372380D01*
X152032142Y-41705714D02*
X151651190Y-41705714D01*
X151889285Y-41372380D02*
X151889285Y-42229523D01*
X151841666Y-42324761D01*
X151746428Y-42372380D01*
X151651190Y-42372380D01*
X150936904Y-42324761D02*
X151032142Y-42372380D01*
X151222619Y-42372380D01*
X151317857Y-42324761D01*
X151365476Y-42229523D01*
X151365476Y-41848571D01*
X151317857Y-41753333D01*
X151222619Y-41705714D01*
X151032142Y-41705714D01*
X150936904Y-41753333D01*
X150889285Y-41848571D01*
X150889285Y-41943809D01*
X151365476Y-42039047D01*
X149270238Y-42372380D02*
X149270238Y-41848571D01*
X149317857Y-41753333D01*
X149413095Y-41705714D01*
X149603571Y-41705714D01*
X149698809Y-41753333D01*
X149270238Y-42324761D02*
X149365476Y-42372380D01*
X149603571Y-42372380D01*
X149698809Y-42324761D01*
X149746428Y-42229523D01*
X149746428Y-42134285D01*
X149698809Y-42039047D01*
X149603571Y-41991428D01*
X149365476Y-41991428D01*
X149270238Y-41943809D01*
X148794047Y-41705714D02*
X148794047Y-42372380D01*
X148794047Y-41800952D02*
X148746428Y-41753333D01*
X148651190Y-41705714D01*
X148508333Y-41705714D01*
X148413095Y-41753333D01*
X148365476Y-41848571D01*
X148365476Y-42372380D01*
X147460714Y-42372380D02*
X147460714Y-41372380D01*
X147460714Y-42324761D02*
X147555952Y-42372380D01*
X147746428Y-42372380D01*
X147841666Y-42324761D01*
X147889285Y-42277142D01*
X147936904Y-42181904D01*
X147936904Y-41896190D01*
X147889285Y-41800952D01*
X147841666Y-41753333D01*
X147746428Y-41705714D01*
X147555952Y-41705714D01*
X147460714Y-41753333D01*
X146222619Y-42372380D02*
X146222619Y-41372380D01*
X145984523Y-41372380D01*
X145841666Y-41420000D01*
X145746428Y-41515238D01*
X145698809Y-41610476D01*
X145651190Y-41800952D01*
X145651190Y-41943809D01*
X145698809Y-42134285D01*
X145746428Y-42229523D01*
X145841666Y-42324761D01*
X145984523Y-42372380D01*
X146222619Y-42372380D01*
X145222619Y-42372380D02*
X145222619Y-41705714D01*
X145222619Y-41372380D02*
X145270238Y-41420000D01*
X145222619Y-41467619D01*
X145175000Y-41420000D01*
X145222619Y-41372380D01*
X145222619Y-41467619D01*
X144794047Y-42324761D02*
X144698809Y-42372380D01*
X144508333Y-42372380D01*
X144413095Y-42324761D01*
X144365476Y-42229523D01*
X144365476Y-42181904D01*
X144413095Y-42086666D01*
X144508333Y-42039047D01*
X144651190Y-42039047D01*
X144746428Y-41991428D01*
X144794047Y-41896190D01*
X144794047Y-41848571D01*
X144746428Y-41753333D01*
X144651190Y-41705714D01*
X144508333Y-41705714D01*
X144413095Y-41753333D01*
X143936904Y-41705714D02*
X143936904Y-42705714D01*
X143936904Y-41753333D02*
X143841666Y-41705714D01*
X143651190Y-41705714D01*
X143555952Y-41753333D01*
X143508333Y-41800952D01*
X143460714Y-41896190D01*
X143460714Y-42181904D01*
X143508333Y-42277142D01*
X143555952Y-42324761D01*
X143651190Y-42372380D01*
X143841666Y-42372380D01*
X143936904Y-42324761D01*
X142889285Y-42372380D02*
X142984523Y-42324761D01*
X143032142Y-42229523D01*
X143032142Y-41372380D01*
X142079761Y-42372380D02*
X142079761Y-41848571D01*
X142127380Y-41753333D01*
X142222619Y-41705714D01*
X142413095Y-41705714D01*
X142508333Y-41753333D01*
X142079761Y-42324761D02*
X142175000Y-42372380D01*
X142413095Y-42372380D01*
X142508333Y-42324761D01*
X142555952Y-42229523D01*
X142555952Y-42134285D01*
X142508333Y-42039047D01*
X142413095Y-41991428D01*
X142175000Y-41991428D01*
X142079761Y-41943809D01*
X141698809Y-41705714D02*
X141460714Y-42372380D01*
X141222619Y-41705714D02*
X141460714Y-42372380D01*
X141555952Y-42610476D01*
X141603571Y-42658095D01*
X141698809Y-42705714D01*
X140555952Y-42753333D02*
X140603571Y-42705714D01*
X140698809Y-42562857D01*
X140746428Y-42467619D01*
X140794047Y-42324761D01*
X140841666Y-42086666D01*
X140841666Y-41896190D01*
X140794047Y-41658095D01*
X140746428Y-41515238D01*
X140698809Y-41420000D01*
X140603571Y-41277142D01*
X140555952Y-41229523D01*
X139746428Y-42324761D02*
X139841666Y-42372380D01*
X140032142Y-42372380D01*
X140127380Y-42324761D01*
X140175000Y-42277142D01*
X140222619Y-42181904D01*
X140222619Y-41896190D01*
X140175000Y-41800952D01*
X140127380Y-41753333D01*
X140032142Y-41705714D01*
X139841666Y-41705714D01*
X139746428Y-41753333D01*
X138889285Y-41705714D02*
X138889285Y-42372380D01*
X139317857Y-41705714D02*
X139317857Y-42229523D01*
X139270238Y-42324761D01*
X139175000Y-42372380D01*
X139032142Y-42372380D01*
X138936904Y-42324761D01*
X138889285Y-42277142D01*
X138413095Y-42372380D02*
X138413095Y-41705714D01*
X138413095Y-41896190D02*
X138365476Y-41800952D01*
X138317857Y-41753333D01*
X138222619Y-41705714D01*
X138127380Y-41705714D01*
X137936904Y-41705714D02*
X137555952Y-41705714D01*
X137794047Y-41372380D02*
X137794047Y-42229523D01*
X137746428Y-42324761D01*
X137651190Y-42372380D01*
X137555952Y-42372380D01*
X137222619Y-42372380D02*
X137222619Y-41705714D01*
X137222619Y-41372380D02*
X137270238Y-41420000D01*
X137222619Y-41467619D01*
X137175000Y-41420000D01*
X137222619Y-41372380D01*
X137222619Y-41467619D01*
X136794047Y-42324761D02*
X136698809Y-42372380D01*
X136508333Y-42372380D01*
X136413095Y-42324761D01*
X136365476Y-42229523D01*
X136365476Y-42181904D01*
X136413095Y-42086666D01*
X136508333Y-42039047D01*
X136651190Y-42039047D01*
X136746428Y-41991428D01*
X136794047Y-41896190D01*
X136794047Y-41848571D01*
X136746428Y-41753333D01*
X136651190Y-41705714D01*
X136508333Y-41705714D01*
X136413095Y-41753333D01*
X135984523Y-42324761D02*
X135889285Y-42372380D01*
X135698809Y-42372380D01*
X135603571Y-42324761D01*
X135555952Y-42229523D01*
X135555952Y-42181904D01*
X135603571Y-42086666D01*
X135698809Y-42039047D01*
X135841666Y-42039047D01*
X135936904Y-41991428D01*
X135984523Y-41896190D01*
X135984523Y-41848571D01*
X135936904Y-41753333D01*
X135841666Y-41705714D01*
X135698809Y-41705714D01*
X135603571Y-41753333D01*
X134984523Y-41800952D02*
X135079761Y-41753333D01*
X135127380Y-41705714D01*
X135175000Y-41610476D01*
X135175000Y-41562857D01*
X135127380Y-41467619D01*
X135079761Y-41420000D01*
X134984523Y-41372380D01*
X134794047Y-41372380D01*
X134698809Y-41420000D01*
X134651190Y-41467619D01*
X134603571Y-41562857D01*
X134603571Y-41610476D01*
X134651190Y-41705714D01*
X134698809Y-41753333D01*
X134794047Y-41800952D01*
X134984523Y-41800952D01*
X135079761Y-41848571D01*
X135127380Y-41896190D01*
X135175000Y-41991428D01*
X135175000Y-42181904D01*
X135127380Y-42277142D01*
X135079761Y-42324761D01*
X134984523Y-42372380D01*
X134794047Y-42372380D01*
X134698809Y-42324761D01*
X134651190Y-42277142D01*
X134603571Y-42181904D01*
X134603571Y-41991428D01*
X134651190Y-41896190D01*
X134698809Y-41848571D01*
X134794047Y-41800952D01*
X133460714Y-41324761D02*
X134317857Y-42610476D01*
X133127380Y-41705714D02*
X133127380Y-42372380D01*
X133127380Y-41800952D02*
X133079761Y-41753333D01*
X132984523Y-41705714D01*
X132841666Y-41705714D01*
X132746428Y-41753333D01*
X132698809Y-41848571D01*
X132698809Y-42372380D01*
X132365476Y-41705714D02*
X131984523Y-41705714D01*
X132222619Y-41372380D02*
X132222619Y-42229523D01*
X132175000Y-42324761D01*
X132079761Y-42372380D01*
X131984523Y-42372380D01*
X131746428Y-41705714D02*
X131555952Y-42372380D01*
X131365476Y-41896190D01*
X131175000Y-42372380D01*
X130984523Y-41705714D01*
X130127380Y-41372380D02*
X130603571Y-41372380D01*
X130651190Y-41848571D01*
X130603571Y-41800952D01*
X130508333Y-41753333D01*
X130270238Y-41753333D01*
X130175000Y-41800952D01*
X130127380Y-41848571D01*
X130079761Y-41943809D01*
X130079761Y-42181904D01*
X130127380Y-42277142D01*
X130175000Y-42324761D01*
X130270238Y-42372380D01*
X130508333Y-42372380D01*
X130603571Y-42324761D01*
X130651190Y-42277142D01*
X129746428Y-42753333D02*
X129698809Y-42705714D01*
X129603571Y-42562857D01*
X129555952Y-42467619D01*
X129508333Y-42324761D01*
X129460714Y-42086666D01*
X129460714Y-41896190D01*
X129508333Y-41658095D01*
X129555952Y-41515238D01*
X129603571Y-41420000D01*
X129698809Y-41277142D01*
X129746428Y-41229523D01*
X148246428Y-43458571D02*
X148103571Y-43506190D01*
X148055952Y-43553809D01*
X148008333Y-43649047D01*
X148008333Y-43791904D01*
X148055952Y-43887142D01*
X148103571Y-43934761D01*
X148198809Y-43982380D01*
X148579761Y-43982380D01*
X148579761Y-42982380D01*
X148246428Y-42982380D01*
X148151190Y-43030000D01*
X148103571Y-43077619D01*
X148055952Y-43172857D01*
X148055952Y-43268095D01*
X148103571Y-43363333D01*
X148151190Y-43410952D01*
X148246428Y-43458571D01*
X148579761Y-43458571D01*
X147198809Y-43934761D02*
X147294047Y-43982380D01*
X147484523Y-43982380D01*
X147579761Y-43934761D01*
X147627380Y-43839523D01*
X147627380Y-43458571D01*
X147579761Y-43363333D01*
X147484523Y-43315714D01*
X147294047Y-43315714D01*
X147198809Y-43363333D01*
X147151190Y-43458571D01*
X147151190Y-43553809D01*
X147627380Y-43649047D01*
X146722619Y-43315714D02*
X146722619Y-43982380D01*
X146722619Y-43410952D02*
X146675000Y-43363333D01*
X146579761Y-43315714D01*
X146436904Y-43315714D01*
X146341666Y-43363333D01*
X146294047Y-43458571D01*
X146294047Y-43982380D01*
X145389285Y-43934761D02*
X145484523Y-43982380D01*
X145675000Y-43982380D01*
X145770238Y-43934761D01*
X145817857Y-43887142D01*
X145865476Y-43791904D01*
X145865476Y-43506190D01*
X145817857Y-43410952D01*
X145770238Y-43363333D01*
X145675000Y-43315714D01*
X145484523Y-43315714D01*
X145389285Y-43363333D01*
X144960714Y-43982380D02*
X144960714Y-42982380D01*
X144532142Y-43982380D02*
X144532142Y-43458571D01*
X144579761Y-43363333D01*
X144675000Y-43315714D01*
X144817857Y-43315714D01*
X144913095Y-43363333D01*
X144960714Y-43410952D01*
X142770238Y-43030000D02*
X142865476Y-42982380D01*
X143008333Y-42982380D01*
X143151190Y-43030000D01*
X143246428Y-43125238D01*
X143294047Y-43220476D01*
X143341666Y-43410952D01*
X143341666Y-43553809D01*
X143294047Y-43744285D01*
X143246428Y-43839523D01*
X143151190Y-43934761D01*
X143008333Y-43982380D01*
X142913095Y-43982380D01*
X142770238Y-43934761D01*
X142722619Y-43887142D01*
X142722619Y-43553809D01*
X142913095Y-43553809D01*
M02*
