%TF.GenerationSoftware,KiCad,Pcbnew,(6.0.5)*%
%TF.CreationDate,2024-11-07T13:37:00-06:00*%
%TF.ProjectId,FinalPCBBoard1,46696e61-6c50-4434-9242-6f617264312e,rev?*%
%TF.SameCoordinates,Original*%
%TF.FileFunction,Soldermask,Bot*%
%TF.FilePolarity,Negative*%
%FSLAX46Y46*%
G04 Gerber Fmt 4.6, Leading zero omitted, Abs format (unit mm)*
G04 Created by KiCad (PCBNEW (6.0.5)) date 2024-11-07 13:37:00*
%MOMM*%
%LPD*%
G01*
G04 APERTURE LIST*
%ADD10C,2.000000*%
%ADD11R,1.700000X1.700000*%
%ADD12O,1.700000X1.700000*%
%ADD13C,0.700000*%
%ADD14O,0.900000X1.700000*%
%ADD15O,0.900000X2.400000*%
G04 APERTURE END LIST*
D10*
%TO.C,STMRST2*%
X115010000Y-71410000D03*
X108510000Y-71410000D03*
X108510000Y-75910000D03*
X115010000Y-75910000D03*
%TD*%
%TO.C,STMRST1*%
X115010000Y-60960000D03*
X108510000Y-60960000D03*
X108510000Y-65460000D03*
X115010000Y-65460000D03*
%TD*%
D11*
%TO.C,STMPROGRAM1*%
X157505000Y-90195000D03*
D12*
X157505000Y-92735000D03*
X157505000Y-95275000D03*
X157505000Y-97815000D03*
X157505000Y-100355000D03*
X157505000Y-102895000D03*
%TD*%
D11*
%TO.C,J4*%
X82570000Y-77500000D03*
D12*
X80030000Y-77500000D03*
X82570000Y-80040000D03*
X80030000Y-80040000D03*
X82570000Y-82580000D03*
X80030000Y-82580000D03*
X82570000Y-85120000D03*
X80030000Y-85120000D03*
X82570000Y-87660000D03*
X80030000Y-87660000D03*
X82570000Y-90200000D03*
X80030000Y-90200000D03*
X82570000Y-92740000D03*
X80030000Y-92740000D03*
X82570000Y-95280000D03*
X80030000Y-95280000D03*
X82570000Y-97820000D03*
X80030000Y-97820000D03*
X82570000Y-100360000D03*
X80030000Y-100360000D03*
%TD*%
D11*
%TO.C,J3*%
X71800000Y-66060000D03*
D12*
X71800000Y-63520000D03*
X71800000Y-60980000D03*
X71800000Y-58440000D03*
X71800000Y-55900000D03*
%TD*%
D11*
%TO.C,J2*%
X147320000Y-81280000D03*
D12*
X144780000Y-81280000D03*
X147320000Y-78740000D03*
X144780000Y-78740000D03*
X147320000Y-76200000D03*
X144780000Y-76200000D03*
X147320000Y-73660000D03*
X144780000Y-73660000D03*
X147320000Y-71120000D03*
X144780000Y-71120000D03*
X147320000Y-68580000D03*
X144780000Y-68580000D03*
X147320000Y-66040000D03*
X144780000Y-66040000D03*
X147320000Y-63500000D03*
X144780000Y-63500000D03*
%TD*%
D13*
%TO.C,J1*%
X104575000Y-47205000D03*
X103725000Y-47205000D03*
X102875000Y-47205000D03*
X102025000Y-47205000D03*
X101175000Y-47205000D03*
X100325000Y-47205000D03*
X99475000Y-47205000D03*
X98625000Y-47205000D03*
X98625000Y-45855000D03*
X99475000Y-45855000D03*
X100325000Y-45855000D03*
X101175000Y-45855000D03*
X102025000Y-45855000D03*
X102875000Y-45855000D03*
X103725000Y-45855000D03*
X104575000Y-45855000D03*
D14*
X97275000Y-42845000D03*
X105925000Y-42845000D03*
D15*
X97275000Y-46225000D03*
X105925000Y-46225000D03*
%TD*%
D10*
%TO.C,FB1*%
X109220000Y-86360000D03*
X114300000Y-86360000D03*
%TD*%
D11*
%TO.C,ESPPROGRAM1*%
X83140000Y-123215000D03*
D12*
X83140000Y-125755000D03*
X83140000Y-128295000D03*
X83140000Y-130835000D03*
X83140000Y-133375000D03*
X83140000Y-135915000D03*
%TD*%
D10*
%TO.C,ESPEN1*%
X131790000Y-136330000D03*
X131790000Y-129830000D03*
X127290000Y-129830000D03*
X127290000Y-136330000D03*
%TD*%
%TO.C,ESPBOOT1*%
X87070000Y-109510000D03*
X80570000Y-109510000D03*
X80570000Y-114010000D03*
X87070000Y-114010000D03*
%TD*%
M02*
