%TF.GenerationSoftware,KiCad,Pcbnew,(6.0.5)*%
%TF.CreationDate,2024-11-07T13:37:00-06:00*%
%TF.ProjectId,FinalPCBBoard1,46696e61-6c50-4434-9242-6f617264312e,rev?*%
%TF.SameCoordinates,Original*%
%TF.FileFunction,Legend,Top*%
%TF.FilePolarity,Positive*%
%FSLAX46Y46*%
G04 Gerber Fmt 4.6, Leading zero omitted, Abs format (unit mm)*
G04 Created by KiCad (PCBNEW (6.0.5)) date 2024-11-07 13:37:00*
%MOMM*%
%LPD*%
G01*
G04 APERTURE LIST*
%ADD10C,0.150000*%
%ADD11C,0.120000*%
G04 APERTURE END LIST*
D10*
X103667857Y-73928571D02*
X103810714Y-73976190D01*
X103858333Y-74023809D01*
X103905952Y-74119047D01*
X103905952Y-74261904D01*
X103858333Y-74357142D01*
X103810714Y-74404761D01*
X103715476Y-74452380D01*
X103334523Y-74452380D01*
X103334523Y-73452380D01*
X103667857Y-73452380D01*
X103763095Y-73500000D01*
X103810714Y-73547619D01*
X103858333Y-73642857D01*
X103858333Y-73738095D01*
X103810714Y-73833333D01*
X103763095Y-73880952D01*
X103667857Y-73928571D01*
X103334523Y-73928571D01*
X104525000Y-73452380D02*
X104715476Y-73452380D01*
X104810714Y-73500000D01*
X104905952Y-73595238D01*
X104953571Y-73785714D01*
X104953571Y-74119047D01*
X104905952Y-74309523D01*
X104810714Y-74404761D01*
X104715476Y-74452380D01*
X104525000Y-74452380D01*
X104429761Y-74404761D01*
X104334523Y-74309523D01*
X104286904Y-74119047D01*
X104286904Y-73785714D01*
X104334523Y-73595238D01*
X104429761Y-73500000D01*
X104525000Y-73452380D01*
X105572619Y-73452380D02*
X105763095Y-73452380D01*
X105858333Y-73500000D01*
X105953571Y-73595238D01*
X106001190Y-73785714D01*
X106001190Y-74119047D01*
X105953571Y-74309523D01*
X105858333Y-74404761D01*
X105763095Y-74452380D01*
X105572619Y-74452380D01*
X105477380Y-74404761D01*
X105382142Y-74309523D01*
X105334523Y-74119047D01*
X105334523Y-73785714D01*
X105382142Y-73595238D01*
X105477380Y-73500000D01*
X105572619Y-73452380D01*
X106286904Y-73452380D02*
X106858333Y-73452380D01*
X106572619Y-74452380D02*
X106572619Y-73452380D01*
X110057142Y-57677380D02*
X110057142Y-56677380D01*
X110628571Y-57677380D01*
X110628571Y-56677380D01*
X111676190Y-57677380D02*
X111342857Y-57201190D01*
X111104761Y-57677380D02*
X111104761Y-56677380D01*
X111485714Y-56677380D01*
X111580952Y-56725000D01*
X111628571Y-56772619D01*
X111676190Y-56867857D01*
X111676190Y-57010714D01*
X111628571Y-57105952D01*
X111580952Y-57153571D01*
X111485714Y-57201190D01*
X111104761Y-57201190D01*
X112057142Y-57629761D02*
X112200000Y-57677380D01*
X112438095Y-57677380D01*
X112533333Y-57629761D01*
X112580952Y-57582142D01*
X112628571Y-57486904D01*
X112628571Y-57391666D01*
X112580952Y-57296428D01*
X112533333Y-57248809D01*
X112438095Y-57201190D01*
X112247619Y-57153571D01*
X112152380Y-57105952D01*
X112104761Y-57058333D01*
X112057142Y-56963095D01*
X112057142Y-56867857D01*
X112104761Y-56772619D01*
X112152380Y-56725000D01*
X112247619Y-56677380D01*
X112485714Y-56677380D01*
X112628571Y-56725000D01*
X112914285Y-56677380D02*
X113485714Y-56677380D01*
X113200000Y-57677380D02*
X113200000Y-56677380D01*
X76965476Y-73552380D02*
X76965476Y-72552380D01*
X77346428Y-72552380D01*
X77441666Y-72600000D01*
X77489285Y-72647619D01*
X77536904Y-72742857D01*
X77536904Y-72885714D01*
X77489285Y-72980952D01*
X77441666Y-73028571D01*
X77346428Y-73076190D01*
X76965476Y-73076190D01*
X77965476Y-73552380D02*
X77965476Y-72885714D01*
X77965476Y-73076190D02*
X78013095Y-72980952D01*
X78060714Y-72933333D01*
X78155952Y-72885714D01*
X78251190Y-72885714D01*
X78727380Y-73552380D02*
X78632142Y-73504761D01*
X78584523Y-73457142D01*
X78536904Y-73361904D01*
X78536904Y-73076190D01*
X78584523Y-72980952D01*
X78632142Y-72933333D01*
X78727380Y-72885714D01*
X78870238Y-72885714D01*
X78965476Y-72933333D01*
X79013095Y-72980952D01*
X79060714Y-73076190D01*
X79060714Y-73361904D01*
X79013095Y-73457142D01*
X78965476Y-73504761D01*
X78870238Y-73552380D01*
X78727380Y-73552380D01*
X79917857Y-72885714D02*
X79917857Y-73695238D01*
X79870238Y-73790476D01*
X79822619Y-73838095D01*
X79727380Y-73885714D01*
X79584523Y-73885714D01*
X79489285Y-73838095D01*
X79917857Y-73504761D02*
X79822619Y-73552380D01*
X79632142Y-73552380D01*
X79536904Y-73504761D01*
X79489285Y-73457142D01*
X79441666Y-73361904D01*
X79441666Y-73076190D01*
X79489285Y-72980952D01*
X79536904Y-72933333D01*
X79632142Y-72885714D01*
X79822619Y-72885714D01*
X79917857Y-72933333D01*
X80394047Y-73552380D02*
X80394047Y-72885714D01*
X80394047Y-73076190D02*
X80441666Y-72980952D01*
X80489285Y-72933333D01*
X80584523Y-72885714D01*
X80679761Y-72885714D01*
X81441666Y-73552380D02*
X81441666Y-73028571D01*
X81394047Y-72933333D01*
X81298809Y-72885714D01*
X81108333Y-72885714D01*
X81013095Y-72933333D01*
X81441666Y-73504761D02*
X81346428Y-73552380D01*
X81108333Y-73552380D01*
X81013095Y-73504761D01*
X80965476Y-73409523D01*
X80965476Y-73314285D01*
X81013095Y-73219047D01*
X81108333Y-73171428D01*
X81346428Y-73171428D01*
X81441666Y-73123809D01*
X81917857Y-73552380D02*
X81917857Y-72885714D01*
X81917857Y-72980952D02*
X81965476Y-72933333D01*
X82060714Y-72885714D01*
X82203571Y-72885714D01*
X82298809Y-72933333D01*
X82346428Y-73028571D01*
X82346428Y-73552380D01*
X82346428Y-73028571D02*
X82394047Y-72933333D01*
X82489285Y-72885714D01*
X82632142Y-72885714D01*
X82727380Y-72933333D01*
X82775000Y-73028571D01*
X82775000Y-73552380D01*
X83251190Y-73552380D02*
X83251190Y-72885714D01*
X83251190Y-72980952D02*
X83298809Y-72933333D01*
X83394047Y-72885714D01*
X83536904Y-72885714D01*
X83632142Y-72933333D01*
X83679761Y-73028571D01*
X83679761Y-73552380D01*
X83679761Y-73028571D02*
X83727380Y-72933333D01*
X83822619Y-72885714D01*
X83965476Y-72885714D01*
X84060714Y-72933333D01*
X84108333Y-73028571D01*
X84108333Y-73552380D01*
X84965476Y-73504761D02*
X84870238Y-73552380D01*
X84679761Y-73552380D01*
X84584523Y-73504761D01*
X84536904Y-73409523D01*
X84536904Y-73028571D01*
X84584523Y-72933333D01*
X84679761Y-72885714D01*
X84870238Y-72885714D01*
X84965476Y-72933333D01*
X85013095Y-73028571D01*
X85013095Y-73123809D01*
X84536904Y-73219047D01*
X85441666Y-73552380D02*
X85441666Y-72885714D01*
X85441666Y-73076190D02*
X85489285Y-72980952D01*
X85536904Y-72933333D01*
X85632142Y-72885714D01*
X85727380Y-72885714D01*
X72707142Y-80457380D02*
X73373809Y-81457380D01*
X73373809Y-80457380D02*
X72707142Y-81457380D01*
X74373809Y-80457380D02*
X74707142Y-81457380D01*
X75040476Y-80457380D01*
X75373809Y-81457380D02*
X75373809Y-80457380D01*
X75611904Y-80457380D01*
X75754761Y-80505000D01*
X75850000Y-80600238D01*
X75897619Y-80695476D01*
X75945238Y-80885952D01*
X75945238Y-81028809D01*
X75897619Y-81219285D01*
X75850000Y-81314523D01*
X75754761Y-81409761D01*
X75611904Y-81457380D01*
X75373809Y-81457380D01*
X76373809Y-81457380D02*
X76373809Y-80457380D01*
X76611904Y-80457380D01*
X76754761Y-80505000D01*
X76850000Y-80600238D01*
X76897619Y-80695476D01*
X76945238Y-80885952D01*
X76945238Y-81028809D01*
X76897619Y-81219285D01*
X76850000Y-81314523D01*
X76754761Y-81409761D01*
X76611904Y-81457380D01*
X76373809Y-81457380D01*
X73659523Y-82067380D02*
X74326190Y-83067380D01*
X74326190Y-82067380D02*
X73659523Y-83067380D01*
X75373809Y-82067380D02*
X76040476Y-83067380D01*
X76040476Y-82067380D02*
X75373809Y-83067380D01*
X73659523Y-83677380D02*
X74326190Y-84677380D01*
X74326190Y-83677380D02*
X73659523Y-84677380D01*
X75373809Y-83677380D02*
X76040476Y-84677380D01*
X76040476Y-83677380D02*
X75373809Y-84677380D01*
X71826190Y-85287380D02*
X72492857Y-86287380D01*
X72492857Y-85287380D02*
X71826190Y-86287380D01*
X73588095Y-86239761D02*
X73730952Y-86287380D01*
X73969047Y-86287380D01*
X74064285Y-86239761D01*
X74111904Y-86192142D01*
X74159523Y-86096904D01*
X74159523Y-86001666D01*
X74111904Y-85906428D01*
X74064285Y-85858809D01*
X73969047Y-85811190D01*
X73778571Y-85763571D01*
X73683333Y-85715952D01*
X73635714Y-85668333D01*
X73588095Y-85573095D01*
X73588095Y-85477857D01*
X73635714Y-85382619D01*
X73683333Y-85335000D01*
X73778571Y-85287380D01*
X74016666Y-85287380D01*
X74159523Y-85335000D01*
X74492857Y-85287380D02*
X74730952Y-86287380D01*
X74921428Y-85573095D01*
X75111904Y-86287380D01*
X75350000Y-85287380D01*
X75730952Y-86287380D02*
X75730952Y-85287380D01*
X75969047Y-85287380D01*
X76111904Y-85335000D01*
X76207142Y-85430238D01*
X76254761Y-85525476D01*
X76302380Y-85715952D01*
X76302380Y-85858809D01*
X76254761Y-86049285D01*
X76207142Y-86144523D01*
X76111904Y-86239761D01*
X75969047Y-86287380D01*
X75730952Y-86287380D01*
X76730952Y-86287380D02*
X76730952Y-85287380D01*
X77397619Y-85287380D02*
X77588095Y-85287380D01*
X77683333Y-85335000D01*
X77778571Y-85430238D01*
X77826190Y-85620714D01*
X77826190Y-85954047D01*
X77778571Y-86144523D01*
X77683333Y-86239761D01*
X77588095Y-86287380D01*
X77397619Y-86287380D01*
X77302380Y-86239761D01*
X77207142Y-86144523D01*
X77159523Y-85954047D01*
X77159523Y-85620714D01*
X77207142Y-85430238D01*
X77302380Y-85335000D01*
X77397619Y-85287380D01*
X71683333Y-86897380D02*
X72350000Y-87897380D01*
X72350000Y-86897380D02*
X71683333Y-87897380D01*
X73445238Y-87849761D02*
X73588095Y-87897380D01*
X73826190Y-87897380D01*
X73921428Y-87849761D01*
X73969047Y-87802142D01*
X74016666Y-87706904D01*
X74016666Y-87611666D01*
X73969047Y-87516428D01*
X73921428Y-87468809D01*
X73826190Y-87421190D01*
X73635714Y-87373571D01*
X73540476Y-87325952D01*
X73492857Y-87278333D01*
X73445238Y-87183095D01*
X73445238Y-87087857D01*
X73492857Y-86992619D01*
X73540476Y-86945000D01*
X73635714Y-86897380D01*
X73873809Y-86897380D01*
X74016666Y-86945000D01*
X74350000Y-86897380D02*
X74588095Y-87897380D01*
X74778571Y-87183095D01*
X74969047Y-87897380D01*
X75207142Y-86897380D01*
X76159523Y-87802142D02*
X76111904Y-87849761D01*
X75969047Y-87897380D01*
X75873809Y-87897380D01*
X75730952Y-87849761D01*
X75635714Y-87754523D01*
X75588095Y-87659285D01*
X75540476Y-87468809D01*
X75540476Y-87325952D01*
X75588095Y-87135476D01*
X75635714Y-87040238D01*
X75730952Y-86945000D01*
X75873809Y-86897380D01*
X75969047Y-86897380D01*
X76111904Y-86945000D01*
X76159523Y-86992619D01*
X77064285Y-87897380D02*
X76588095Y-87897380D01*
X76588095Y-86897380D01*
X77397619Y-87897380D02*
X77397619Y-86897380D01*
X77969047Y-87897380D02*
X77540476Y-87325952D01*
X77969047Y-86897380D02*
X77397619Y-87468809D01*
X73230952Y-88555000D02*
X73135714Y-88507380D01*
X72992857Y-88507380D01*
X72850000Y-88555000D01*
X72754761Y-88650238D01*
X72707142Y-88745476D01*
X72659523Y-88935952D01*
X72659523Y-89078809D01*
X72707142Y-89269285D01*
X72754761Y-89364523D01*
X72850000Y-89459761D01*
X72992857Y-89507380D01*
X73088095Y-89507380D01*
X73230952Y-89459761D01*
X73278571Y-89412142D01*
X73278571Y-89078809D01*
X73088095Y-89078809D01*
X73707142Y-89507380D02*
X73707142Y-88507380D01*
X74278571Y-89507380D01*
X74278571Y-88507380D01*
X74754761Y-89507380D02*
X74754761Y-88507380D01*
X74992857Y-88507380D01*
X75135714Y-88555000D01*
X75230952Y-88650238D01*
X75278571Y-88745476D01*
X75326190Y-88935952D01*
X75326190Y-89078809D01*
X75278571Y-89269285D01*
X75230952Y-89364523D01*
X75135714Y-89459761D01*
X74992857Y-89507380D01*
X74754761Y-89507380D01*
X76421428Y-88507380D02*
X77088095Y-89507380D01*
X77088095Y-88507380D02*
X76421428Y-89507380D01*
X73659523Y-90117380D02*
X74326190Y-91117380D01*
X74326190Y-90117380D02*
X73659523Y-91117380D01*
X75373809Y-90117380D02*
X76040476Y-91117380D01*
X76040476Y-90117380D02*
X75373809Y-91117380D01*
X73659523Y-91727380D02*
X74326190Y-92727380D01*
X74326190Y-91727380D02*
X73659523Y-92727380D01*
X75373809Y-91727380D02*
X76040476Y-92727380D01*
X76040476Y-91727380D02*
X75373809Y-92727380D01*
X73230952Y-93385000D02*
X73135714Y-93337380D01*
X72992857Y-93337380D01*
X72850000Y-93385000D01*
X72754761Y-93480238D01*
X72707142Y-93575476D01*
X72659523Y-93765952D01*
X72659523Y-93908809D01*
X72707142Y-94099285D01*
X72754761Y-94194523D01*
X72850000Y-94289761D01*
X72992857Y-94337380D01*
X73088095Y-94337380D01*
X73230952Y-94289761D01*
X73278571Y-94242142D01*
X73278571Y-93908809D01*
X73088095Y-93908809D01*
X73707142Y-94337380D02*
X73707142Y-93337380D01*
X74278571Y-94337380D01*
X74278571Y-93337380D01*
X74754761Y-94337380D02*
X74754761Y-93337380D01*
X74992857Y-93337380D01*
X75135714Y-93385000D01*
X75230952Y-93480238D01*
X75278571Y-93575476D01*
X75326190Y-93765952D01*
X75326190Y-93908809D01*
X75278571Y-94099285D01*
X75230952Y-94194523D01*
X75135714Y-94289761D01*
X74992857Y-94337380D01*
X74754761Y-94337380D01*
X76421428Y-93337380D02*
X77088095Y-94337380D01*
X77088095Y-93337380D02*
X76421428Y-94337380D01*
X73230952Y-94995000D02*
X73135714Y-94947380D01*
X72992857Y-94947380D01*
X72850000Y-94995000D01*
X72754761Y-95090238D01*
X72707142Y-95185476D01*
X72659523Y-95375952D01*
X72659523Y-95518809D01*
X72707142Y-95709285D01*
X72754761Y-95804523D01*
X72850000Y-95899761D01*
X72992857Y-95947380D01*
X73088095Y-95947380D01*
X73230952Y-95899761D01*
X73278571Y-95852142D01*
X73278571Y-95518809D01*
X73088095Y-95518809D01*
X73707142Y-95947380D02*
X73707142Y-94947380D01*
X74278571Y-95947380D01*
X74278571Y-94947380D01*
X74754761Y-95947380D02*
X74754761Y-94947380D01*
X74992857Y-94947380D01*
X75135714Y-94995000D01*
X75230952Y-95090238D01*
X75278571Y-95185476D01*
X75326190Y-95375952D01*
X75326190Y-95518809D01*
X75278571Y-95709285D01*
X75230952Y-95804523D01*
X75135714Y-95899761D01*
X74992857Y-95947380D01*
X74754761Y-95947380D01*
X76421428Y-94947380D02*
X77088095Y-95947380D01*
X77088095Y-94947380D02*
X76421428Y-95947380D01*
X76859523Y-118953571D02*
X77192857Y-118953571D01*
X77335714Y-119477380D02*
X76859523Y-119477380D01*
X76859523Y-118477380D01*
X77335714Y-118477380D01*
X77716666Y-119429761D02*
X77859523Y-119477380D01*
X78097619Y-119477380D01*
X78192857Y-119429761D01*
X78240476Y-119382142D01*
X78288095Y-119286904D01*
X78288095Y-119191666D01*
X78240476Y-119096428D01*
X78192857Y-119048809D01*
X78097619Y-119001190D01*
X77907142Y-118953571D01*
X77811904Y-118905952D01*
X77764285Y-118858333D01*
X77716666Y-118763095D01*
X77716666Y-118667857D01*
X77764285Y-118572619D01*
X77811904Y-118525000D01*
X77907142Y-118477380D01*
X78145238Y-118477380D01*
X78288095Y-118525000D01*
X78716666Y-119477380D02*
X78716666Y-118477380D01*
X79097619Y-118477380D01*
X79192857Y-118525000D01*
X79240476Y-118572619D01*
X79288095Y-118667857D01*
X79288095Y-118810714D01*
X79240476Y-118905952D01*
X79192857Y-118953571D01*
X79097619Y-119001190D01*
X78716666Y-119001190D01*
X70316666Y-124427380D02*
X70983333Y-125427380D01*
X70983333Y-124427380D02*
X70316666Y-125427380D01*
X70483333Y-127037380D02*
X70150000Y-126561190D01*
X69911904Y-127037380D02*
X69911904Y-126037380D01*
X70292857Y-126037380D01*
X70388095Y-126085000D01*
X70435714Y-126132619D01*
X70483333Y-126227857D01*
X70483333Y-126370714D01*
X70435714Y-126465952D01*
X70388095Y-126513571D01*
X70292857Y-126561190D01*
X69911904Y-126561190D01*
X70816666Y-126037380D02*
X71483333Y-127037380D01*
X71483333Y-126037380D02*
X70816666Y-127037380D01*
X69888095Y-127647380D02*
X70459523Y-127647380D01*
X70173809Y-128647380D02*
X70173809Y-127647380D01*
X70697619Y-127647380D02*
X71364285Y-128647380D01*
X71364285Y-127647380D02*
X70697619Y-128647380D01*
X70316666Y-129257380D02*
X70983333Y-130257380D01*
X70983333Y-129257380D02*
X70316666Y-130257380D01*
X70316666Y-130867380D02*
X70983333Y-131867380D01*
X70983333Y-130867380D02*
X70316666Y-131867380D01*
X69888095Y-132525000D02*
X69792857Y-132477380D01*
X69650000Y-132477380D01*
X69507142Y-132525000D01*
X69411904Y-132620238D01*
X69364285Y-132715476D01*
X69316666Y-132905952D01*
X69316666Y-133048809D01*
X69364285Y-133239285D01*
X69411904Y-133334523D01*
X69507142Y-133429761D01*
X69650000Y-133477380D01*
X69745238Y-133477380D01*
X69888095Y-133429761D01*
X69935714Y-133382142D01*
X69935714Y-133048809D01*
X69745238Y-133048809D01*
X70364285Y-133477380D02*
X70364285Y-132477380D01*
X70935714Y-133477380D01*
X70935714Y-132477380D01*
X71411904Y-133477380D02*
X71411904Y-132477380D01*
X71650000Y-132477380D01*
X71792857Y-132525000D01*
X71888095Y-132620238D01*
X71935714Y-132715476D01*
X71983333Y-132905952D01*
X71983333Y-133048809D01*
X71935714Y-133239285D01*
X71888095Y-133334523D01*
X71792857Y-133429761D01*
X71650000Y-133477380D01*
X71411904Y-133477380D01*
X79975000Y-118078571D02*
X80308333Y-118078571D01*
X80451190Y-118602380D02*
X79975000Y-118602380D01*
X79975000Y-117602380D01*
X80451190Y-117602380D01*
X80832142Y-118554761D02*
X80975000Y-118602380D01*
X81213095Y-118602380D01*
X81308333Y-118554761D01*
X81355952Y-118507142D01*
X81403571Y-118411904D01*
X81403571Y-118316666D01*
X81355952Y-118221428D01*
X81308333Y-118173809D01*
X81213095Y-118126190D01*
X81022619Y-118078571D01*
X80927380Y-118030952D01*
X80879761Y-117983333D01*
X80832142Y-117888095D01*
X80832142Y-117792857D01*
X80879761Y-117697619D01*
X80927380Y-117650000D01*
X81022619Y-117602380D01*
X81260714Y-117602380D01*
X81403571Y-117650000D01*
X81832142Y-118602380D02*
X81832142Y-117602380D01*
X82213095Y-117602380D01*
X82308333Y-117650000D01*
X82355952Y-117697619D01*
X82403571Y-117792857D01*
X82403571Y-117935714D01*
X82355952Y-118030952D01*
X82308333Y-118078571D01*
X82213095Y-118126190D01*
X81832142Y-118126190D01*
X83927380Y-118078571D02*
X84070238Y-118126190D01*
X84117857Y-118173809D01*
X84165476Y-118269047D01*
X84165476Y-118411904D01*
X84117857Y-118507142D01*
X84070238Y-118554761D01*
X83975000Y-118602380D01*
X83594047Y-118602380D01*
X83594047Y-117602380D01*
X83927380Y-117602380D01*
X84022619Y-117650000D01*
X84070238Y-117697619D01*
X84117857Y-117792857D01*
X84117857Y-117888095D01*
X84070238Y-117983333D01*
X84022619Y-118030952D01*
X83927380Y-118078571D01*
X83594047Y-118078571D01*
X84784523Y-117602380D02*
X84975000Y-117602380D01*
X85070238Y-117650000D01*
X85165476Y-117745238D01*
X85213095Y-117935714D01*
X85213095Y-118269047D01*
X85165476Y-118459523D01*
X85070238Y-118554761D01*
X84975000Y-118602380D01*
X84784523Y-118602380D01*
X84689285Y-118554761D01*
X84594047Y-118459523D01*
X84546428Y-118269047D01*
X84546428Y-117935714D01*
X84594047Y-117745238D01*
X84689285Y-117650000D01*
X84784523Y-117602380D01*
X85832142Y-117602380D02*
X86022619Y-117602380D01*
X86117857Y-117650000D01*
X86213095Y-117745238D01*
X86260714Y-117935714D01*
X86260714Y-118269047D01*
X86213095Y-118459523D01*
X86117857Y-118554761D01*
X86022619Y-118602380D01*
X85832142Y-118602380D01*
X85736904Y-118554761D01*
X85641666Y-118459523D01*
X85594047Y-118269047D01*
X85594047Y-117935714D01*
X85641666Y-117745238D01*
X85736904Y-117650000D01*
X85832142Y-117602380D01*
X86546428Y-117602380D02*
X87117857Y-117602380D01*
X86832142Y-118602380D02*
X86832142Y-117602380D01*
X125930952Y-127078571D02*
X126264285Y-127078571D01*
X126407142Y-127602380D02*
X125930952Y-127602380D01*
X125930952Y-126602380D01*
X126407142Y-126602380D01*
X126788095Y-127554761D02*
X126930952Y-127602380D01*
X127169047Y-127602380D01*
X127264285Y-127554761D01*
X127311904Y-127507142D01*
X127359523Y-127411904D01*
X127359523Y-127316666D01*
X127311904Y-127221428D01*
X127264285Y-127173809D01*
X127169047Y-127126190D01*
X126978571Y-127078571D01*
X126883333Y-127030952D01*
X126835714Y-126983333D01*
X126788095Y-126888095D01*
X126788095Y-126792857D01*
X126835714Y-126697619D01*
X126883333Y-126650000D01*
X126978571Y-126602380D01*
X127216666Y-126602380D01*
X127359523Y-126650000D01*
X127788095Y-127602380D02*
X127788095Y-126602380D01*
X128169047Y-126602380D01*
X128264285Y-126650000D01*
X128311904Y-126697619D01*
X128359523Y-126792857D01*
X128359523Y-126935714D01*
X128311904Y-127030952D01*
X128264285Y-127078571D01*
X128169047Y-127126190D01*
X127788095Y-127126190D01*
X130121428Y-127602380D02*
X129788095Y-127126190D01*
X129550000Y-127602380D02*
X129550000Y-126602380D01*
X129930952Y-126602380D01*
X130026190Y-126650000D01*
X130073809Y-126697619D01*
X130121428Y-126792857D01*
X130121428Y-126935714D01*
X130073809Y-127030952D01*
X130026190Y-127078571D01*
X129930952Y-127126190D01*
X129550000Y-127126190D01*
X130930952Y-127554761D02*
X130835714Y-127602380D01*
X130645238Y-127602380D01*
X130550000Y-127554761D01*
X130502380Y-127459523D01*
X130502380Y-127078571D01*
X130550000Y-126983333D01*
X130645238Y-126935714D01*
X130835714Y-126935714D01*
X130930952Y-126983333D01*
X130978571Y-127078571D01*
X130978571Y-127173809D01*
X130502380Y-127269047D01*
X131359523Y-127554761D02*
X131454761Y-127602380D01*
X131645238Y-127602380D01*
X131740476Y-127554761D01*
X131788095Y-127459523D01*
X131788095Y-127411904D01*
X131740476Y-127316666D01*
X131645238Y-127269047D01*
X131502380Y-127269047D01*
X131407142Y-127221428D01*
X131359523Y-127126190D01*
X131359523Y-127078571D01*
X131407142Y-126983333D01*
X131502380Y-126935714D01*
X131645238Y-126935714D01*
X131740476Y-126983333D01*
X132597619Y-127554761D02*
X132502380Y-127602380D01*
X132311904Y-127602380D01*
X132216666Y-127554761D01*
X132169047Y-127459523D01*
X132169047Y-127078571D01*
X132216666Y-126983333D01*
X132311904Y-126935714D01*
X132502380Y-126935714D01*
X132597619Y-126983333D01*
X132645238Y-127078571D01*
X132645238Y-127173809D01*
X132169047Y-127269047D01*
X132930952Y-126935714D02*
X133311904Y-126935714D01*
X133073809Y-126602380D02*
X133073809Y-127459523D01*
X133121428Y-127554761D01*
X133216666Y-127602380D01*
X133311904Y-127602380D01*
X156436904Y-85299761D02*
X156579761Y-85347380D01*
X156817857Y-85347380D01*
X156913095Y-85299761D01*
X156960714Y-85252142D01*
X157008333Y-85156904D01*
X157008333Y-85061666D01*
X156960714Y-84966428D01*
X156913095Y-84918809D01*
X156817857Y-84871190D01*
X156627380Y-84823571D01*
X156532142Y-84775952D01*
X156484523Y-84728333D01*
X156436904Y-84633095D01*
X156436904Y-84537857D01*
X156484523Y-84442619D01*
X156532142Y-84395000D01*
X156627380Y-84347380D01*
X156865476Y-84347380D01*
X157008333Y-84395000D01*
X157294047Y-84347380D02*
X157865476Y-84347380D01*
X157579761Y-85347380D02*
X157579761Y-84347380D01*
X158198809Y-85347380D02*
X158198809Y-84347380D01*
X158532142Y-85061666D01*
X158865476Y-84347380D01*
X158865476Y-85347380D01*
X160741666Y-91677380D02*
X161408333Y-92677380D01*
X161408333Y-91677380D02*
X160741666Y-92677380D01*
X160908333Y-94287380D02*
X160575000Y-93811190D01*
X160336904Y-94287380D02*
X160336904Y-93287380D01*
X160717857Y-93287380D01*
X160813095Y-93335000D01*
X160860714Y-93382619D01*
X160908333Y-93477857D01*
X160908333Y-93620714D01*
X160860714Y-93715952D01*
X160813095Y-93763571D01*
X160717857Y-93811190D01*
X160336904Y-93811190D01*
X161241666Y-93287380D02*
X161908333Y-94287380D01*
X161908333Y-93287380D02*
X161241666Y-94287380D01*
X160313095Y-94897380D02*
X160884523Y-94897380D01*
X160598809Y-95897380D02*
X160598809Y-94897380D01*
X161122619Y-94897380D02*
X161789285Y-95897380D01*
X161789285Y-94897380D02*
X161122619Y-95897380D01*
X160741666Y-96507380D02*
X161408333Y-97507380D01*
X161408333Y-96507380D02*
X160741666Y-97507380D01*
X160741666Y-98117380D02*
X161408333Y-99117380D01*
X161408333Y-98117380D02*
X160741666Y-99117380D01*
X160313095Y-99775000D02*
X160217857Y-99727380D01*
X160075000Y-99727380D01*
X159932142Y-99775000D01*
X159836904Y-99870238D01*
X159789285Y-99965476D01*
X159741666Y-100155952D01*
X159741666Y-100298809D01*
X159789285Y-100489285D01*
X159836904Y-100584523D01*
X159932142Y-100679761D01*
X160075000Y-100727380D01*
X160170238Y-100727380D01*
X160313095Y-100679761D01*
X160360714Y-100632142D01*
X160360714Y-100298809D01*
X160170238Y-100298809D01*
X160789285Y-100727380D02*
X160789285Y-99727380D01*
X161360714Y-100727380D01*
X161360714Y-99727380D01*
X161836904Y-100727380D02*
X161836904Y-99727380D01*
X162075000Y-99727380D01*
X162217857Y-99775000D01*
X162313095Y-99870238D01*
X162360714Y-99965476D01*
X162408333Y-100155952D01*
X162408333Y-100298809D01*
X162360714Y-100489285D01*
X162313095Y-100584523D01*
X162217857Y-100679761D01*
X162075000Y-100727380D01*
X161836904Y-100727380D01*
X154833333Y-65877380D02*
X154357142Y-65877380D01*
X154357142Y-64877380D01*
X155166666Y-65353571D02*
X155500000Y-65353571D01*
X155642857Y-65877380D02*
X155166666Y-65877380D01*
X155166666Y-64877380D01*
X155642857Y-64877380D01*
X156071428Y-65877380D02*
X156071428Y-64877380D01*
X156309523Y-64877380D01*
X156452380Y-64925000D01*
X156547619Y-65020238D01*
X156595238Y-65115476D01*
X156642857Y-65305952D01*
X156642857Y-65448809D01*
X156595238Y-65639285D01*
X156547619Y-65734523D01*
X156452380Y-65829761D01*
X156309523Y-65877380D01*
X156071428Y-65877380D01*
X158261904Y-65877380D02*
X158261904Y-64877380D01*
X158261904Y-65829761D02*
X158166666Y-65877380D01*
X157976190Y-65877380D01*
X157880952Y-65829761D01*
X157833333Y-65782142D01*
X157785714Y-65686904D01*
X157785714Y-65401190D01*
X157833333Y-65305952D01*
X157880952Y-65258333D01*
X157976190Y-65210714D01*
X158166666Y-65210714D01*
X158261904Y-65258333D01*
X158738095Y-65877380D02*
X158738095Y-65210714D01*
X158738095Y-64877380D02*
X158690476Y-64925000D01*
X158738095Y-64972619D01*
X158785714Y-64925000D01*
X158738095Y-64877380D01*
X158738095Y-64972619D01*
X159166666Y-65829761D02*
X159261904Y-65877380D01*
X159452380Y-65877380D01*
X159547619Y-65829761D01*
X159595238Y-65734523D01*
X159595238Y-65686904D01*
X159547619Y-65591666D01*
X159452380Y-65544047D01*
X159309523Y-65544047D01*
X159214285Y-65496428D01*
X159166666Y-65401190D01*
X159166666Y-65353571D01*
X159214285Y-65258333D01*
X159309523Y-65210714D01*
X159452380Y-65210714D01*
X159547619Y-65258333D01*
X160023809Y-65210714D02*
X160023809Y-66210714D01*
X160023809Y-65258333D02*
X160119047Y-65210714D01*
X160309523Y-65210714D01*
X160404761Y-65258333D01*
X160452380Y-65305952D01*
X160500000Y-65401190D01*
X160500000Y-65686904D01*
X160452380Y-65782142D01*
X160404761Y-65829761D01*
X160309523Y-65877380D01*
X160119047Y-65877380D01*
X160023809Y-65829761D01*
X161071428Y-65877380D02*
X160976190Y-65829761D01*
X160928571Y-65734523D01*
X160928571Y-64877380D01*
X161880952Y-65877380D02*
X161880952Y-65353571D01*
X161833333Y-65258333D01*
X161738095Y-65210714D01*
X161547619Y-65210714D01*
X161452380Y-65258333D01*
X161880952Y-65829761D02*
X161785714Y-65877380D01*
X161547619Y-65877380D01*
X161452380Y-65829761D01*
X161404761Y-65734523D01*
X161404761Y-65639285D01*
X161452380Y-65544047D01*
X161547619Y-65496428D01*
X161785714Y-65496428D01*
X161880952Y-65448809D01*
X162261904Y-65210714D02*
X162500000Y-65877380D01*
X162738095Y-65210714D02*
X162500000Y-65877380D01*
X162404761Y-66115476D01*
X162357142Y-66163095D01*
X162261904Y-66210714D01*
X156330952Y-66965000D02*
X156235714Y-66917380D01*
X156092857Y-66917380D01*
X155950000Y-66965000D01*
X155854761Y-67060238D01*
X155807142Y-67155476D01*
X155759523Y-67345952D01*
X155759523Y-67488809D01*
X155807142Y-67679285D01*
X155854761Y-67774523D01*
X155950000Y-67869761D01*
X156092857Y-67917380D01*
X156188095Y-67917380D01*
X156330952Y-67869761D01*
X156378571Y-67822142D01*
X156378571Y-67488809D01*
X156188095Y-67488809D01*
X156807142Y-67917380D02*
X156807142Y-66917380D01*
X157378571Y-67917380D01*
X157378571Y-66917380D01*
X157854761Y-67917380D02*
X157854761Y-66917380D01*
X158092857Y-66917380D01*
X158235714Y-66965000D01*
X158330952Y-67060238D01*
X158378571Y-67155476D01*
X158426190Y-67345952D01*
X158426190Y-67488809D01*
X158378571Y-67679285D01*
X158330952Y-67774523D01*
X158235714Y-67869761D01*
X158092857Y-67917380D01*
X157854761Y-67917380D01*
X159807142Y-66917380D02*
X159997619Y-66917380D01*
X160092857Y-66965000D01*
X160188095Y-67060238D01*
X160235714Y-67250714D01*
X160235714Y-67584047D01*
X160188095Y-67774523D01*
X160092857Y-67869761D01*
X159997619Y-67917380D01*
X159807142Y-67917380D01*
X159711904Y-67869761D01*
X159616666Y-67774523D01*
X159569047Y-67584047D01*
X159569047Y-67250714D01*
X159616666Y-67060238D01*
X159711904Y-66965000D01*
X159807142Y-66917380D01*
X160664285Y-67393571D02*
X160997619Y-67393571D01*
X161140476Y-67917380D02*
X160664285Y-67917380D01*
X160664285Y-66917380D01*
X161140476Y-66917380D01*
X156164285Y-69527380D02*
X155688095Y-69527380D01*
X155688095Y-68527380D01*
X156450000Y-69241666D02*
X156926190Y-69241666D01*
X156354761Y-69527380D02*
X156688095Y-68527380D01*
X157021428Y-69527380D01*
X157211904Y-68527380D02*
X157783333Y-68527380D01*
X157497619Y-69527380D02*
X157497619Y-68527380D01*
X159450000Y-69432142D02*
X159402380Y-69479761D01*
X159259523Y-69527380D01*
X159164285Y-69527380D01*
X159021428Y-69479761D01*
X158926190Y-69384523D01*
X158878571Y-69289285D01*
X158830952Y-69098809D01*
X158830952Y-68955952D01*
X158878571Y-68765476D01*
X158926190Y-68670238D01*
X159021428Y-68575000D01*
X159164285Y-68527380D01*
X159259523Y-68527380D01*
X159402380Y-68575000D01*
X159450000Y-68622619D01*
X160354761Y-69527380D02*
X159878571Y-69527380D01*
X159878571Y-68527380D01*
X160688095Y-69527380D02*
X160688095Y-68527380D01*
X161259523Y-69527380D02*
X160830952Y-68955952D01*
X161259523Y-68527380D02*
X160688095Y-69098809D01*
X157307142Y-71137380D02*
X157307142Y-70137380D01*
X157545238Y-70137380D01*
X157688095Y-70185000D01*
X157783333Y-70280238D01*
X157830952Y-70375476D01*
X157878571Y-70565952D01*
X157878571Y-70708809D01*
X157830952Y-70899285D01*
X157783333Y-70994523D01*
X157688095Y-71089761D01*
X157545238Y-71137380D01*
X157307142Y-71137380D01*
X159640476Y-71042142D02*
X159592857Y-71089761D01*
X159450000Y-71137380D01*
X159354761Y-71137380D01*
X159211904Y-71089761D01*
X159116666Y-70994523D01*
X159069047Y-70899285D01*
X159021428Y-70708809D01*
X159021428Y-70565952D01*
X159069047Y-70375476D01*
X159116666Y-70280238D01*
X159211904Y-70185000D01*
X159354761Y-70137380D01*
X159450000Y-70137380D01*
X159592857Y-70185000D01*
X159640476Y-70232619D01*
X157711904Y-72223571D02*
X157854761Y-72271190D01*
X157902380Y-72318809D01*
X157950000Y-72414047D01*
X157950000Y-72556904D01*
X157902380Y-72652142D01*
X157854761Y-72699761D01*
X157759523Y-72747380D01*
X157378571Y-72747380D01*
X157378571Y-71747380D01*
X157711904Y-71747380D01*
X157807142Y-71795000D01*
X157854761Y-71842619D01*
X157902380Y-71937857D01*
X157902380Y-72033095D01*
X157854761Y-72128333D01*
X157807142Y-72175952D01*
X157711904Y-72223571D01*
X157378571Y-72223571D01*
X159092857Y-72461666D02*
X159569047Y-72461666D01*
X158997619Y-72747380D02*
X159330952Y-71747380D01*
X159664285Y-72747380D01*
X156878571Y-73833571D02*
X157211904Y-73833571D01*
X157354761Y-74357380D02*
X156878571Y-74357380D01*
X156878571Y-73357380D01*
X157354761Y-73357380D01*
X158878571Y-73833571D02*
X159021428Y-73881190D01*
X159069047Y-73928809D01*
X159116666Y-74024047D01*
X159116666Y-74166904D01*
X159069047Y-74262142D01*
X159021428Y-74309761D01*
X158926190Y-74357380D01*
X158545238Y-74357380D01*
X158545238Y-73357380D01*
X158878571Y-73357380D01*
X158973809Y-73405000D01*
X159021428Y-73452619D01*
X159069047Y-73547857D01*
X159069047Y-73643095D01*
X159021428Y-73738333D01*
X158973809Y-73785952D01*
X158878571Y-73833571D01*
X158545238Y-73833571D01*
X159497619Y-73452619D02*
X159545238Y-73405000D01*
X159640476Y-73357380D01*
X159878571Y-73357380D01*
X159973809Y-73405000D01*
X160021428Y-73452619D01*
X160069047Y-73547857D01*
X160069047Y-73643095D01*
X160021428Y-73785952D01*
X159450000Y-74357380D01*
X160069047Y-74357380D01*
X156878571Y-75015000D02*
X156783333Y-74967380D01*
X156640476Y-74967380D01*
X156497619Y-75015000D01*
X156402380Y-75110238D01*
X156354761Y-75205476D01*
X156307142Y-75395952D01*
X156307142Y-75538809D01*
X156354761Y-75729285D01*
X156402380Y-75824523D01*
X156497619Y-75919761D01*
X156640476Y-75967380D01*
X156735714Y-75967380D01*
X156878571Y-75919761D01*
X156926190Y-75872142D01*
X156926190Y-75538809D01*
X156735714Y-75538809D01*
X157307142Y-75062619D02*
X157354761Y-75015000D01*
X157450000Y-74967380D01*
X157688095Y-74967380D01*
X157783333Y-75015000D01*
X157830952Y-75062619D01*
X157878571Y-75157857D01*
X157878571Y-75253095D01*
X157830952Y-75395952D01*
X157259523Y-75967380D01*
X157878571Y-75967380D01*
X159640476Y-75967380D02*
X159307142Y-75491190D01*
X159069047Y-75967380D02*
X159069047Y-74967380D01*
X159450000Y-74967380D01*
X159545238Y-75015000D01*
X159592857Y-75062619D01*
X159640476Y-75157857D01*
X159640476Y-75300714D01*
X159592857Y-75395952D01*
X159545238Y-75443571D01*
X159450000Y-75491190D01*
X159069047Y-75491190D01*
X160021428Y-75062619D02*
X160069047Y-75015000D01*
X160164285Y-74967380D01*
X160402380Y-74967380D01*
X160497619Y-75015000D01*
X160545238Y-75062619D01*
X160592857Y-75157857D01*
X160592857Y-75253095D01*
X160545238Y-75395952D01*
X159973809Y-75967380D01*
X160592857Y-75967380D01*
X156330952Y-76625000D02*
X156235714Y-76577380D01*
X156092857Y-76577380D01*
X155950000Y-76625000D01*
X155854761Y-76720238D01*
X155807142Y-76815476D01*
X155759523Y-77005952D01*
X155759523Y-77148809D01*
X155807142Y-77339285D01*
X155854761Y-77434523D01*
X155950000Y-77529761D01*
X156092857Y-77577380D01*
X156188095Y-77577380D01*
X156330952Y-77529761D01*
X156378571Y-77482142D01*
X156378571Y-77148809D01*
X156188095Y-77148809D01*
X156807142Y-77577380D02*
X156807142Y-76577380D01*
X157378571Y-77577380D01*
X157378571Y-76577380D01*
X157854761Y-77577380D02*
X157854761Y-76577380D01*
X158092857Y-76577380D01*
X158235714Y-76625000D01*
X158330952Y-76720238D01*
X158378571Y-76815476D01*
X158426190Y-77005952D01*
X158426190Y-77148809D01*
X158378571Y-77339285D01*
X158330952Y-77434523D01*
X158235714Y-77529761D01*
X158092857Y-77577380D01*
X157854761Y-77577380D01*
X159950000Y-77053571D02*
X160092857Y-77101190D01*
X160140476Y-77148809D01*
X160188095Y-77244047D01*
X160188095Y-77386904D01*
X160140476Y-77482142D01*
X160092857Y-77529761D01*
X159997619Y-77577380D01*
X159616666Y-77577380D01*
X159616666Y-76577380D01*
X159950000Y-76577380D01*
X160045238Y-76625000D01*
X160092857Y-76672619D01*
X160140476Y-76767857D01*
X160140476Y-76863095D01*
X160092857Y-76958333D01*
X160045238Y-77005952D01*
X159950000Y-77053571D01*
X159616666Y-77053571D01*
X161140476Y-77577380D02*
X160569047Y-77577380D01*
X160854761Y-77577380D02*
X160854761Y-76577380D01*
X160759523Y-76720238D01*
X160664285Y-76815476D01*
X160569047Y-76863095D01*
X156878571Y-78235000D02*
X156783333Y-78187380D01*
X156640476Y-78187380D01*
X156497619Y-78235000D01*
X156402380Y-78330238D01*
X156354761Y-78425476D01*
X156307142Y-78615952D01*
X156307142Y-78758809D01*
X156354761Y-78949285D01*
X156402380Y-79044523D01*
X156497619Y-79139761D01*
X156640476Y-79187380D01*
X156735714Y-79187380D01*
X156878571Y-79139761D01*
X156926190Y-79092142D01*
X156926190Y-78758809D01*
X156735714Y-78758809D01*
X157878571Y-79187380D02*
X157307142Y-79187380D01*
X157592857Y-79187380D02*
X157592857Y-78187380D01*
X157497619Y-78330238D01*
X157402380Y-78425476D01*
X157307142Y-78473095D01*
X159640476Y-79187380D02*
X159307142Y-78711190D01*
X159069047Y-79187380D02*
X159069047Y-78187380D01*
X159450000Y-78187380D01*
X159545238Y-78235000D01*
X159592857Y-78282619D01*
X159640476Y-78377857D01*
X159640476Y-78520714D01*
X159592857Y-78615952D01*
X159545238Y-78663571D01*
X159450000Y-78711190D01*
X159069047Y-78711190D01*
X160592857Y-79187380D02*
X160021428Y-79187380D01*
X160307142Y-79187380D02*
X160307142Y-78187380D01*
X160211904Y-78330238D01*
X160116666Y-78425476D01*
X160021428Y-78473095D01*
X83996428Y-55677380D02*
X83663095Y-55201190D01*
X83425000Y-55677380D02*
X83425000Y-54677380D01*
X83805952Y-54677380D01*
X83901190Y-54725000D01*
X83948809Y-54772619D01*
X83996428Y-54867857D01*
X83996428Y-55010714D01*
X83948809Y-55105952D01*
X83901190Y-55153571D01*
X83805952Y-55201190D01*
X83425000Y-55201190D01*
X84567857Y-55677380D02*
X84472619Y-55629761D01*
X84425000Y-55582142D01*
X84377380Y-55486904D01*
X84377380Y-55201190D01*
X84425000Y-55105952D01*
X84472619Y-55058333D01*
X84567857Y-55010714D01*
X84710714Y-55010714D01*
X84805952Y-55058333D01*
X84853571Y-55105952D01*
X84901190Y-55201190D01*
X84901190Y-55486904D01*
X84853571Y-55582142D01*
X84805952Y-55629761D01*
X84710714Y-55677380D01*
X84567857Y-55677380D01*
X85186904Y-55010714D02*
X85567857Y-55010714D01*
X85329761Y-54677380D02*
X85329761Y-55534523D01*
X85377380Y-55629761D01*
X85472619Y-55677380D01*
X85567857Y-55677380D01*
X86329761Y-55677380D02*
X86329761Y-55153571D01*
X86282142Y-55058333D01*
X86186904Y-55010714D01*
X85996428Y-55010714D01*
X85901190Y-55058333D01*
X86329761Y-55629761D02*
X86234523Y-55677380D01*
X85996428Y-55677380D01*
X85901190Y-55629761D01*
X85853571Y-55534523D01*
X85853571Y-55439285D01*
X85901190Y-55344047D01*
X85996428Y-55296428D01*
X86234523Y-55296428D01*
X86329761Y-55248809D01*
X86805952Y-55677380D02*
X86805952Y-55010714D01*
X86805952Y-55201190D02*
X86853571Y-55105952D01*
X86901190Y-55058333D01*
X86996428Y-55010714D01*
X87091666Y-55010714D01*
X87329761Y-55010714D02*
X87567857Y-55677380D01*
X87805952Y-55010714D02*
X87567857Y-55677380D01*
X87472619Y-55915476D01*
X87425000Y-55963095D01*
X87329761Y-56010714D01*
X88948809Y-55153571D02*
X89282142Y-55153571D01*
X89425000Y-55677380D02*
X88948809Y-55677380D01*
X88948809Y-54677380D01*
X89425000Y-54677380D01*
X89853571Y-55010714D02*
X89853571Y-55677380D01*
X89853571Y-55105952D02*
X89901190Y-55058333D01*
X89996428Y-55010714D01*
X90139285Y-55010714D01*
X90234523Y-55058333D01*
X90282142Y-55153571D01*
X90282142Y-55677380D01*
X91186904Y-55629761D02*
X91091666Y-55677380D01*
X90901190Y-55677380D01*
X90805952Y-55629761D01*
X90758333Y-55582142D01*
X90710714Y-55486904D01*
X90710714Y-55201190D01*
X90758333Y-55105952D01*
X90805952Y-55058333D01*
X90901190Y-55010714D01*
X91091666Y-55010714D01*
X91186904Y-55058333D01*
X91758333Y-55677380D02*
X91663095Y-55629761D01*
X91615476Y-55582142D01*
X91567857Y-55486904D01*
X91567857Y-55201190D01*
X91615476Y-55105952D01*
X91663095Y-55058333D01*
X91758333Y-55010714D01*
X91901190Y-55010714D01*
X91996428Y-55058333D01*
X92044047Y-55105952D01*
X92091666Y-55201190D01*
X92091666Y-55486904D01*
X92044047Y-55582142D01*
X91996428Y-55629761D01*
X91901190Y-55677380D01*
X91758333Y-55677380D01*
X92948809Y-55677380D02*
X92948809Y-54677380D01*
X92948809Y-55629761D02*
X92853571Y-55677380D01*
X92663095Y-55677380D01*
X92567857Y-55629761D01*
X92520238Y-55582142D01*
X92472619Y-55486904D01*
X92472619Y-55201190D01*
X92520238Y-55105952D01*
X92567857Y-55058333D01*
X92663095Y-55010714D01*
X92853571Y-55010714D01*
X92948809Y-55058333D01*
X93805952Y-55629761D02*
X93710714Y-55677380D01*
X93520238Y-55677380D01*
X93425000Y-55629761D01*
X93377380Y-55534523D01*
X93377380Y-55153571D01*
X93425000Y-55058333D01*
X93520238Y-55010714D01*
X93710714Y-55010714D01*
X93805952Y-55058333D01*
X93853571Y-55153571D01*
X93853571Y-55248809D01*
X93377380Y-55344047D01*
X94282142Y-55677380D02*
X94282142Y-55010714D01*
X94282142Y-55201190D02*
X94329761Y-55105952D01*
X94377380Y-55058333D01*
X94472619Y-55010714D01*
X94567857Y-55010714D01*
X83963095Y-56580000D02*
X83867857Y-56532380D01*
X83725000Y-56532380D01*
X83582142Y-56580000D01*
X83486904Y-56675238D01*
X83439285Y-56770476D01*
X83391666Y-56960952D01*
X83391666Y-57103809D01*
X83439285Y-57294285D01*
X83486904Y-57389523D01*
X83582142Y-57484761D01*
X83725000Y-57532380D01*
X83820238Y-57532380D01*
X83963095Y-57484761D01*
X84010714Y-57437142D01*
X84010714Y-57103809D01*
X83820238Y-57103809D01*
X84439285Y-57532380D02*
X84439285Y-56532380D01*
X85010714Y-57532380D01*
X85010714Y-56532380D01*
X85486904Y-57532380D02*
X85486904Y-56532380D01*
X85725000Y-56532380D01*
X85867857Y-56580000D01*
X85963095Y-56675238D01*
X86010714Y-56770476D01*
X86058333Y-56960952D01*
X86058333Y-57103809D01*
X86010714Y-57294285D01*
X85963095Y-57389523D01*
X85867857Y-57484761D01*
X85725000Y-57532380D01*
X85486904Y-57532380D01*
X84534523Y-58142380D02*
X84058333Y-58142380D01*
X84010714Y-58618571D01*
X84058333Y-58570952D01*
X84153571Y-58523333D01*
X84391666Y-58523333D01*
X84486904Y-58570952D01*
X84534523Y-58618571D01*
X84582142Y-58713809D01*
X84582142Y-58951904D01*
X84534523Y-59047142D01*
X84486904Y-59094761D01*
X84391666Y-59142380D01*
X84153571Y-59142380D01*
X84058333Y-59094761D01*
X84010714Y-59047142D01*
X84867857Y-58142380D02*
X85201190Y-59142380D01*
X85534523Y-58142380D01*
X83867857Y-60704761D02*
X84010714Y-60752380D01*
X84248809Y-60752380D01*
X84344047Y-60704761D01*
X84391666Y-60657142D01*
X84439285Y-60561904D01*
X84439285Y-60466666D01*
X84391666Y-60371428D01*
X84344047Y-60323809D01*
X84248809Y-60276190D01*
X84058333Y-60228571D01*
X83963095Y-60180952D01*
X83915476Y-60133333D01*
X83867857Y-60038095D01*
X83867857Y-59942857D01*
X83915476Y-59847619D01*
X83963095Y-59800000D01*
X84058333Y-59752380D01*
X84296428Y-59752380D01*
X84439285Y-59800000D01*
X84772619Y-59752380D02*
X85010714Y-60752380D01*
X85201190Y-60038095D01*
X85391666Y-60752380D01*
X85629761Y-59752380D01*
X84082142Y-62362380D02*
X84082142Y-61362380D01*
X84320238Y-61362380D01*
X84463095Y-61410000D01*
X84558333Y-61505238D01*
X84605952Y-61600476D01*
X84653571Y-61790952D01*
X84653571Y-61933809D01*
X84605952Y-62124285D01*
X84558333Y-62219523D01*
X84463095Y-62314761D01*
X84320238Y-62362380D01*
X84082142Y-62362380D01*
X84939285Y-61362380D02*
X85510714Y-61362380D01*
X85225000Y-62362380D02*
X85225000Y-61362380D01*
X84129761Y-63877142D02*
X84082142Y-63924761D01*
X83939285Y-63972380D01*
X83844047Y-63972380D01*
X83701190Y-63924761D01*
X83605952Y-63829523D01*
X83558333Y-63734285D01*
X83510714Y-63543809D01*
X83510714Y-63400952D01*
X83558333Y-63210476D01*
X83605952Y-63115238D01*
X83701190Y-63020000D01*
X83844047Y-62972380D01*
X83939285Y-62972380D01*
X84082142Y-63020000D01*
X84129761Y-63067619D01*
X85034523Y-63972380D02*
X84558333Y-63972380D01*
X84558333Y-62972380D01*
X85367857Y-63972380D02*
X85367857Y-62972380D01*
X85939285Y-63972380D02*
X85510714Y-63400952D01*
X85939285Y-62972380D02*
X85367857Y-63543809D01*
%TO.C,C7*%
X124158333Y-48262142D02*
X124110714Y-48309761D01*
X123967857Y-48357380D01*
X123872619Y-48357380D01*
X123729761Y-48309761D01*
X123634523Y-48214523D01*
X123586904Y-48119285D01*
X123539285Y-47928809D01*
X123539285Y-47785952D01*
X123586904Y-47595476D01*
X123634523Y-47500238D01*
X123729761Y-47405000D01*
X123872619Y-47357380D01*
X123967857Y-47357380D01*
X124110714Y-47405000D01*
X124158333Y-47452619D01*
X124491666Y-47357380D02*
X125158333Y-47357380D01*
X124729761Y-48357380D01*
%TO.C,U3*%
X128778095Y-79962380D02*
X128778095Y-80771904D01*
X128825714Y-80867142D01*
X128873333Y-80914761D01*
X128968571Y-80962380D01*
X129159047Y-80962380D01*
X129254285Y-80914761D01*
X129301904Y-80867142D01*
X129349523Y-80771904D01*
X129349523Y-79962380D01*
X129730476Y-79962380D02*
X130349523Y-79962380D01*
X130016190Y-80343333D01*
X130159047Y-80343333D01*
X130254285Y-80390952D01*
X130301904Y-80438571D01*
X130349523Y-80533809D01*
X130349523Y-80771904D01*
X130301904Y-80867142D01*
X130254285Y-80914761D01*
X130159047Y-80962380D01*
X129873333Y-80962380D01*
X129778095Y-80914761D01*
X129730476Y-80867142D01*
%TO.C,U2*%
X131318095Y-43212380D02*
X131318095Y-44021904D01*
X131365714Y-44117142D01*
X131413333Y-44164761D01*
X131508571Y-44212380D01*
X131699047Y-44212380D01*
X131794285Y-44164761D01*
X131841904Y-44117142D01*
X131889523Y-44021904D01*
X131889523Y-43212380D01*
X132318095Y-43307619D02*
X132365714Y-43260000D01*
X132460952Y-43212380D01*
X132699047Y-43212380D01*
X132794285Y-43260000D01*
X132841904Y-43307619D01*
X132889523Y-43402857D01*
X132889523Y-43498095D01*
X132841904Y-43640952D01*
X132270476Y-44212380D01*
X132889523Y-44212380D01*
%TO.C,U1*%
X114202380Y-121871904D02*
X115011904Y-121871904D01*
X115107142Y-121824285D01*
X115154761Y-121776666D01*
X115202380Y-121681428D01*
X115202380Y-121490952D01*
X115154761Y-121395714D01*
X115107142Y-121348095D01*
X115011904Y-121300476D01*
X114202380Y-121300476D01*
X115202380Y-120300476D02*
X115202380Y-120871904D01*
X115202380Y-120586190D02*
X114202380Y-120586190D01*
X114345238Y-120681428D01*
X114440476Y-120776666D01*
X114488095Y-120871904D01*
%TO.C,STMRST2*%
X108688571Y-69814761D02*
X108831428Y-69862380D01*
X109069523Y-69862380D01*
X109164761Y-69814761D01*
X109212380Y-69767142D01*
X109260000Y-69671904D01*
X109260000Y-69576666D01*
X109212380Y-69481428D01*
X109164761Y-69433809D01*
X109069523Y-69386190D01*
X108879047Y-69338571D01*
X108783809Y-69290952D01*
X108736190Y-69243333D01*
X108688571Y-69148095D01*
X108688571Y-69052857D01*
X108736190Y-68957619D01*
X108783809Y-68910000D01*
X108879047Y-68862380D01*
X109117142Y-68862380D01*
X109260000Y-68910000D01*
X109545714Y-68862380D02*
X110117142Y-68862380D01*
X109831428Y-69862380D02*
X109831428Y-68862380D01*
X110450476Y-69862380D02*
X110450476Y-68862380D01*
X110783809Y-69576666D01*
X111117142Y-68862380D01*
X111117142Y-69862380D01*
X112164761Y-69862380D02*
X111831428Y-69386190D01*
X111593333Y-69862380D02*
X111593333Y-68862380D01*
X111974285Y-68862380D01*
X112069523Y-68910000D01*
X112117142Y-68957619D01*
X112164761Y-69052857D01*
X112164761Y-69195714D01*
X112117142Y-69290952D01*
X112069523Y-69338571D01*
X111974285Y-69386190D01*
X111593333Y-69386190D01*
X112545714Y-69814761D02*
X112688571Y-69862380D01*
X112926666Y-69862380D01*
X113021904Y-69814761D01*
X113069523Y-69767142D01*
X113117142Y-69671904D01*
X113117142Y-69576666D01*
X113069523Y-69481428D01*
X113021904Y-69433809D01*
X112926666Y-69386190D01*
X112736190Y-69338571D01*
X112640952Y-69290952D01*
X112593333Y-69243333D01*
X112545714Y-69148095D01*
X112545714Y-69052857D01*
X112593333Y-68957619D01*
X112640952Y-68910000D01*
X112736190Y-68862380D01*
X112974285Y-68862380D01*
X113117142Y-68910000D01*
X113402857Y-68862380D02*
X113974285Y-68862380D01*
X113688571Y-69862380D02*
X113688571Y-68862380D01*
X114260000Y-68957619D02*
X114307619Y-68910000D01*
X114402857Y-68862380D01*
X114640952Y-68862380D01*
X114736190Y-68910000D01*
X114783809Y-68957619D01*
X114831428Y-69052857D01*
X114831428Y-69148095D01*
X114783809Y-69290952D01*
X114212380Y-69862380D01*
X114831428Y-69862380D01*
%TO.C,STMRST1*%
X108688571Y-59364761D02*
X108831428Y-59412380D01*
X109069523Y-59412380D01*
X109164761Y-59364761D01*
X109212380Y-59317142D01*
X109260000Y-59221904D01*
X109260000Y-59126666D01*
X109212380Y-59031428D01*
X109164761Y-58983809D01*
X109069523Y-58936190D01*
X108879047Y-58888571D01*
X108783809Y-58840952D01*
X108736190Y-58793333D01*
X108688571Y-58698095D01*
X108688571Y-58602857D01*
X108736190Y-58507619D01*
X108783809Y-58460000D01*
X108879047Y-58412380D01*
X109117142Y-58412380D01*
X109260000Y-58460000D01*
X109545714Y-58412380D02*
X110117142Y-58412380D01*
X109831428Y-59412380D02*
X109831428Y-58412380D01*
X110450476Y-59412380D02*
X110450476Y-58412380D01*
X110783809Y-59126666D01*
X111117142Y-58412380D01*
X111117142Y-59412380D01*
X112164761Y-59412380D02*
X111831428Y-58936190D01*
X111593333Y-59412380D02*
X111593333Y-58412380D01*
X111974285Y-58412380D01*
X112069523Y-58460000D01*
X112117142Y-58507619D01*
X112164761Y-58602857D01*
X112164761Y-58745714D01*
X112117142Y-58840952D01*
X112069523Y-58888571D01*
X111974285Y-58936190D01*
X111593333Y-58936190D01*
X112545714Y-59364761D02*
X112688571Y-59412380D01*
X112926666Y-59412380D01*
X113021904Y-59364761D01*
X113069523Y-59317142D01*
X113117142Y-59221904D01*
X113117142Y-59126666D01*
X113069523Y-59031428D01*
X113021904Y-58983809D01*
X112926666Y-58936190D01*
X112736190Y-58888571D01*
X112640952Y-58840952D01*
X112593333Y-58793333D01*
X112545714Y-58698095D01*
X112545714Y-58602857D01*
X112593333Y-58507619D01*
X112640952Y-58460000D01*
X112736190Y-58412380D01*
X112974285Y-58412380D01*
X113117142Y-58460000D01*
X113402857Y-58412380D02*
X113974285Y-58412380D01*
X113688571Y-59412380D02*
X113688571Y-58412380D01*
X114831428Y-59412380D02*
X114260000Y-59412380D01*
X114545714Y-59412380D02*
X114545714Y-58412380D01*
X114450476Y-58555238D01*
X114355238Y-58650476D01*
X114260000Y-58698095D01*
%TO.C,STMPROGRAM1*%
X152266904Y-87829761D02*
X152409761Y-87877380D01*
X152647857Y-87877380D01*
X152743095Y-87829761D01*
X152790714Y-87782142D01*
X152838333Y-87686904D01*
X152838333Y-87591666D01*
X152790714Y-87496428D01*
X152743095Y-87448809D01*
X152647857Y-87401190D01*
X152457380Y-87353571D01*
X152362142Y-87305952D01*
X152314523Y-87258333D01*
X152266904Y-87163095D01*
X152266904Y-87067857D01*
X152314523Y-86972619D01*
X152362142Y-86925000D01*
X152457380Y-86877380D01*
X152695476Y-86877380D01*
X152838333Y-86925000D01*
X153124047Y-86877380D02*
X153695476Y-86877380D01*
X153409761Y-87877380D02*
X153409761Y-86877380D01*
X154028809Y-87877380D02*
X154028809Y-86877380D01*
X154362142Y-87591666D01*
X154695476Y-86877380D01*
X154695476Y-87877380D01*
X155171666Y-87877380D02*
X155171666Y-86877380D01*
X155552619Y-86877380D01*
X155647857Y-86925000D01*
X155695476Y-86972619D01*
X155743095Y-87067857D01*
X155743095Y-87210714D01*
X155695476Y-87305952D01*
X155647857Y-87353571D01*
X155552619Y-87401190D01*
X155171666Y-87401190D01*
X156743095Y-87877380D02*
X156409761Y-87401190D01*
X156171666Y-87877380D02*
X156171666Y-86877380D01*
X156552619Y-86877380D01*
X156647857Y-86925000D01*
X156695476Y-86972619D01*
X156743095Y-87067857D01*
X156743095Y-87210714D01*
X156695476Y-87305952D01*
X156647857Y-87353571D01*
X156552619Y-87401190D01*
X156171666Y-87401190D01*
X157362142Y-86877380D02*
X157552619Y-86877380D01*
X157647857Y-86925000D01*
X157743095Y-87020238D01*
X157790714Y-87210714D01*
X157790714Y-87544047D01*
X157743095Y-87734523D01*
X157647857Y-87829761D01*
X157552619Y-87877380D01*
X157362142Y-87877380D01*
X157266904Y-87829761D01*
X157171666Y-87734523D01*
X157124047Y-87544047D01*
X157124047Y-87210714D01*
X157171666Y-87020238D01*
X157266904Y-86925000D01*
X157362142Y-86877380D01*
X158743095Y-86925000D02*
X158647857Y-86877380D01*
X158505000Y-86877380D01*
X158362142Y-86925000D01*
X158266904Y-87020238D01*
X158219285Y-87115476D01*
X158171666Y-87305952D01*
X158171666Y-87448809D01*
X158219285Y-87639285D01*
X158266904Y-87734523D01*
X158362142Y-87829761D01*
X158505000Y-87877380D01*
X158600238Y-87877380D01*
X158743095Y-87829761D01*
X158790714Y-87782142D01*
X158790714Y-87448809D01*
X158600238Y-87448809D01*
X159790714Y-87877380D02*
X159457380Y-87401190D01*
X159219285Y-87877380D02*
X159219285Y-86877380D01*
X159600238Y-86877380D01*
X159695476Y-86925000D01*
X159743095Y-86972619D01*
X159790714Y-87067857D01*
X159790714Y-87210714D01*
X159743095Y-87305952D01*
X159695476Y-87353571D01*
X159600238Y-87401190D01*
X159219285Y-87401190D01*
X160171666Y-87591666D02*
X160647857Y-87591666D01*
X160076428Y-87877380D02*
X160409761Y-86877380D01*
X160743095Y-87877380D01*
X161076428Y-87877380D02*
X161076428Y-86877380D01*
X161409761Y-87591666D01*
X161743095Y-86877380D01*
X161743095Y-87877380D01*
X162743095Y-87877380D02*
X162171666Y-87877380D01*
X162457380Y-87877380D02*
X162457380Y-86877380D01*
X162362142Y-87020238D01*
X162266904Y-87115476D01*
X162171666Y-87163095D01*
%TO.C,R4*%
X115533333Y-79802380D02*
X115200000Y-79326190D01*
X114961904Y-79802380D02*
X114961904Y-78802380D01*
X115342857Y-78802380D01*
X115438095Y-78850000D01*
X115485714Y-78897619D01*
X115533333Y-78992857D01*
X115533333Y-79135714D01*
X115485714Y-79230952D01*
X115438095Y-79278571D01*
X115342857Y-79326190D01*
X114961904Y-79326190D01*
X116390476Y-79135714D02*
X116390476Y-79802380D01*
X116152380Y-78754761D02*
X115914285Y-79469047D01*
X116533333Y-79469047D01*
%TO.C,R3*%
X93813333Y-111322380D02*
X93480000Y-110846190D01*
X93241904Y-111322380D02*
X93241904Y-110322380D01*
X93622857Y-110322380D01*
X93718095Y-110370000D01*
X93765714Y-110417619D01*
X93813333Y-110512857D01*
X93813333Y-110655714D01*
X93765714Y-110750952D01*
X93718095Y-110798571D01*
X93622857Y-110846190D01*
X93241904Y-110846190D01*
X94146666Y-110322380D02*
X94765714Y-110322380D01*
X94432380Y-110703333D01*
X94575238Y-110703333D01*
X94670476Y-110750952D01*
X94718095Y-110798571D01*
X94765714Y-110893809D01*
X94765714Y-111131904D01*
X94718095Y-111227142D01*
X94670476Y-111274761D01*
X94575238Y-111322380D01*
X94289523Y-111322380D01*
X94194285Y-111274761D01*
X94146666Y-111227142D01*
%TO.C,R2*%
X121753333Y-128342380D02*
X121420000Y-127866190D01*
X121181904Y-128342380D02*
X121181904Y-127342380D01*
X121562857Y-127342380D01*
X121658095Y-127390000D01*
X121705714Y-127437619D01*
X121753333Y-127532857D01*
X121753333Y-127675714D01*
X121705714Y-127770952D01*
X121658095Y-127818571D01*
X121562857Y-127866190D01*
X121181904Y-127866190D01*
X122134285Y-127437619D02*
X122181904Y-127390000D01*
X122277142Y-127342380D01*
X122515238Y-127342380D01*
X122610476Y-127390000D01*
X122658095Y-127437619D01*
X122705714Y-127532857D01*
X122705714Y-127628095D01*
X122658095Y-127770952D01*
X122086666Y-128342380D01*
X122705714Y-128342380D01*
%TO.C,R1*%
X103973333Y-67382380D02*
X103640000Y-66906190D01*
X103401904Y-67382380D02*
X103401904Y-66382380D01*
X103782857Y-66382380D01*
X103878095Y-66430000D01*
X103925714Y-66477619D01*
X103973333Y-66572857D01*
X103973333Y-66715714D01*
X103925714Y-66810952D01*
X103878095Y-66858571D01*
X103782857Y-66906190D01*
X103401904Y-66906190D01*
X104925714Y-67382380D02*
X104354285Y-67382380D01*
X104640000Y-67382380D02*
X104640000Y-66382380D01*
X104544761Y-66525238D01*
X104449523Y-66620476D01*
X104354285Y-66668095D01*
%TO.C,J4*%
X80966666Y-74182380D02*
X80966666Y-74896666D01*
X80919047Y-75039523D01*
X80823809Y-75134761D01*
X80680952Y-75182380D01*
X80585714Y-75182380D01*
X81871428Y-74515714D02*
X81871428Y-75182380D01*
X81633333Y-74134761D02*
X81395238Y-74849047D01*
X82014285Y-74849047D01*
%TO.C,J3*%
X75846666Y-68282380D02*
X75846666Y-68996666D01*
X75799047Y-69139523D01*
X75703809Y-69234761D01*
X75560952Y-69282380D01*
X75465714Y-69282380D01*
X76227619Y-68282380D02*
X76846666Y-68282380D01*
X76513333Y-68663333D01*
X76656190Y-68663333D01*
X76751428Y-68710952D01*
X76799047Y-68758571D01*
X76846666Y-68853809D01*
X76846666Y-69091904D01*
X76799047Y-69187142D01*
X76751428Y-69234761D01*
X76656190Y-69282380D01*
X76370476Y-69282380D01*
X76275238Y-69234761D01*
X76227619Y-69187142D01*
%TO.C,J2*%
X145716666Y-83062380D02*
X145716666Y-83776666D01*
X145669047Y-83919523D01*
X145573809Y-84014761D01*
X145430952Y-84062380D01*
X145335714Y-84062380D01*
X146145238Y-83157619D02*
X146192857Y-83110000D01*
X146288095Y-83062380D01*
X146526190Y-83062380D01*
X146621428Y-83110000D01*
X146669047Y-83157619D01*
X146716666Y-83252857D01*
X146716666Y-83348095D01*
X146669047Y-83490952D01*
X146097619Y-84062380D01*
X146716666Y-84062380D01*
%TO.C,J1*%
X101266666Y-48457380D02*
X101266666Y-49171666D01*
X101219047Y-49314523D01*
X101123809Y-49409761D01*
X100980952Y-49457380D01*
X100885714Y-49457380D01*
X102266666Y-49457380D02*
X101695238Y-49457380D01*
X101980952Y-49457380D02*
X101980952Y-48457380D01*
X101885714Y-48600238D01*
X101790476Y-48695476D01*
X101695238Y-48743095D01*
%TO.C,FB1*%
X110926666Y-82224571D02*
X110593333Y-82224571D01*
X110593333Y-82748380D02*
X110593333Y-81748380D01*
X111069523Y-81748380D01*
X111783809Y-82224571D02*
X111926666Y-82272190D01*
X111974285Y-82319809D01*
X112021904Y-82415047D01*
X112021904Y-82557904D01*
X111974285Y-82653142D01*
X111926666Y-82700761D01*
X111831428Y-82748380D01*
X111450476Y-82748380D01*
X111450476Y-81748380D01*
X111783809Y-81748380D01*
X111879047Y-81796000D01*
X111926666Y-81843619D01*
X111974285Y-81938857D01*
X111974285Y-82034095D01*
X111926666Y-82129333D01*
X111879047Y-82176952D01*
X111783809Y-82224571D01*
X111450476Y-82224571D01*
X112974285Y-82748380D02*
X112402857Y-82748380D01*
X112688571Y-82748380D02*
X112688571Y-81748380D01*
X112593333Y-81891238D01*
X112498095Y-81986476D01*
X112402857Y-82034095D01*
%TO.C,ESPPROGRAM1*%
X73569523Y-120373571D02*
X73902857Y-120373571D01*
X74045714Y-120897380D02*
X73569523Y-120897380D01*
X73569523Y-119897380D01*
X74045714Y-119897380D01*
X74426666Y-120849761D02*
X74569523Y-120897380D01*
X74807619Y-120897380D01*
X74902857Y-120849761D01*
X74950476Y-120802142D01*
X74998095Y-120706904D01*
X74998095Y-120611666D01*
X74950476Y-120516428D01*
X74902857Y-120468809D01*
X74807619Y-120421190D01*
X74617142Y-120373571D01*
X74521904Y-120325952D01*
X74474285Y-120278333D01*
X74426666Y-120183095D01*
X74426666Y-120087857D01*
X74474285Y-119992619D01*
X74521904Y-119945000D01*
X74617142Y-119897380D01*
X74855238Y-119897380D01*
X74998095Y-119945000D01*
X75426666Y-120897380D02*
X75426666Y-119897380D01*
X75807619Y-119897380D01*
X75902857Y-119945000D01*
X75950476Y-119992619D01*
X75998095Y-120087857D01*
X75998095Y-120230714D01*
X75950476Y-120325952D01*
X75902857Y-120373571D01*
X75807619Y-120421190D01*
X75426666Y-120421190D01*
X76426666Y-120897380D02*
X76426666Y-119897380D01*
X76807619Y-119897380D01*
X76902857Y-119945000D01*
X76950476Y-119992619D01*
X76998095Y-120087857D01*
X76998095Y-120230714D01*
X76950476Y-120325952D01*
X76902857Y-120373571D01*
X76807619Y-120421190D01*
X76426666Y-120421190D01*
X77998095Y-120897380D02*
X77664761Y-120421190D01*
X77426666Y-120897380D02*
X77426666Y-119897380D01*
X77807619Y-119897380D01*
X77902857Y-119945000D01*
X77950476Y-119992619D01*
X77998095Y-120087857D01*
X77998095Y-120230714D01*
X77950476Y-120325952D01*
X77902857Y-120373571D01*
X77807619Y-120421190D01*
X77426666Y-120421190D01*
X78617142Y-119897380D02*
X78807619Y-119897380D01*
X78902857Y-119945000D01*
X78998095Y-120040238D01*
X79045714Y-120230714D01*
X79045714Y-120564047D01*
X78998095Y-120754523D01*
X78902857Y-120849761D01*
X78807619Y-120897380D01*
X78617142Y-120897380D01*
X78521904Y-120849761D01*
X78426666Y-120754523D01*
X78379047Y-120564047D01*
X78379047Y-120230714D01*
X78426666Y-120040238D01*
X78521904Y-119945000D01*
X78617142Y-119897380D01*
X79998095Y-119945000D02*
X79902857Y-119897380D01*
X79760000Y-119897380D01*
X79617142Y-119945000D01*
X79521904Y-120040238D01*
X79474285Y-120135476D01*
X79426666Y-120325952D01*
X79426666Y-120468809D01*
X79474285Y-120659285D01*
X79521904Y-120754523D01*
X79617142Y-120849761D01*
X79760000Y-120897380D01*
X79855238Y-120897380D01*
X79998095Y-120849761D01*
X80045714Y-120802142D01*
X80045714Y-120468809D01*
X79855238Y-120468809D01*
X81045714Y-120897380D02*
X80712380Y-120421190D01*
X80474285Y-120897380D02*
X80474285Y-119897380D01*
X80855238Y-119897380D01*
X80950476Y-119945000D01*
X80998095Y-119992619D01*
X81045714Y-120087857D01*
X81045714Y-120230714D01*
X80998095Y-120325952D01*
X80950476Y-120373571D01*
X80855238Y-120421190D01*
X80474285Y-120421190D01*
X81426666Y-120611666D02*
X81902857Y-120611666D01*
X81331428Y-120897380D02*
X81664761Y-119897380D01*
X81998095Y-120897380D01*
X82331428Y-120897380D02*
X82331428Y-119897380D01*
X82664761Y-120611666D01*
X82998095Y-119897380D01*
X82998095Y-120897380D01*
X83998095Y-120897380D02*
X83426666Y-120897380D01*
X83712380Y-120897380D02*
X83712380Y-119897380D01*
X83617142Y-120040238D01*
X83521904Y-120135476D01*
X83426666Y-120183095D01*
%TO.C,ESPEN1*%
X133718571Y-135722857D02*
X133718571Y-135389523D01*
X134242380Y-135246666D02*
X134242380Y-135722857D01*
X133242380Y-135722857D01*
X133242380Y-135246666D01*
X134194761Y-134865714D02*
X134242380Y-134722857D01*
X134242380Y-134484761D01*
X134194761Y-134389523D01*
X134147142Y-134341904D01*
X134051904Y-134294285D01*
X133956666Y-134294285D01*
X133861428Y-134341904D01*
X133813809Y-134389523D01*
X133766190Y-134484761D01*
X133718571Y-134675238D01*
X133670952Y-134770476D01*
X133623333Y-134818095D01*
X133528095Y-134865714D01*
X133432857Y-134865714D01*
X133337619Y-134818095D01*
X133290000Y-134770476D01*
X133242380Y-134675238D01*
X133242380Y-134437142D01*
X133290000Y-134294285D01*
X134242380Y-133865714D02*
X133242380Y-133865714D01*
X133242380Y-133484761D01*
X133290000Y-133389523D01*
X133337619Y-133341904D01*
X133432857Y-133294285D01*
X133575714Y-133294285D01*
X133670952Y-133341904D01*
X133718571Y-133389523D01*
X133766190Y-133484761D01*
X133766190Y-133865714D01*
X133718571Y-132865714D02*
X133718571Y-132532380D01*
X134242380Y-132389523D02*
X134242380Y-132865714D01*
X133242380Y-132865714D01*
X133242380Y-132389523D01*
X134242380Y-131960952D02*
X133242380Y-131960952D01*
X134242380Y-131389523D01*
X133242380Y-131389523D01*
X134242380Y-130389523D02*
X134242380Y-130960952D01*
X134242380Y-130675238D02*
X133242380Y-130675238D01*
X133385238Y-130770476D01*
X133480476Y-130865714D01*
X133528095Y-130960952D01*
%TO.C,ESPBOOT1*%
X80224761Y-107438571D02*
X80558095Y-107438571D01*
X80700952Y-107962380D02*
X80224761Y-107962380D01*
X80224761Y-106962380D01*
X80700952Y-106962380D01*
X81081904Y-107914761D02*
X81224761Y-107962380D01*
X81462857Y-107962380D01*
X81558095Y-107914761D01*
X81605714Y-107867142D01*
X81653333Y-107771904D01*
X81653333Y-107676666D01*
X81605714Y-107581428D01*
X81558095Y-107533809D01*
X81462857Y-107486190D01*
X81272380Y-107438571D01*
X81177142Y-107390952D01*
X81129523Y-107343333D01*
X81081904Y-107248095D01*
X81081904Y-107152857D01*
X81129523Y-107057619D01*
X81177142Y-107010000D01*
X81272380Y-106962380D01*
X81510476Y-106962380D01*
X81653333Y-107010000D01*
X82081904Y-107962380D02*
X82081904Y-106962380D01*
X82462857Y-106962380D01*
X82558095Y-107010000D01*
X82605714Y-107057619D01*
X82653333Y-107152857D01*
X82653333Y-107295714D01*
X82605714Y-107390952D01*
X82558095Y-107438571D01*
X82462857Y-107486190D01*
X82081904Y-107486190D01*
X83415238Y-107438571D02*
X83558095Y-107486190D01*
X83605714Y-107533809D01*
X83653333Y-107629047D01*
X83653333Y-107771904D01*
X83605714Y-107867142D01*
X83558095Y-107914761D01*
X83462857Y-107962380D01*
X83081904Y-107962380D01*
X83081904Y-106962380D01*
X83415238Y-106962380D01*
X83510476Y-107010000D01*
X83558095Y-107057619D01*
X83605714Y-107152857D01*
X83605714Y-107248095D01*
X83558095Y-107343333D01*
X83510476Y-107390952D01*
X83415238Y-107438571D01*
X83081904Y-107438571D01*
X84272380Y-106962380D02*
X84462857Y-106962380D01*
X84558095Y-107010000D01*
X84653333Y-107105238D01*
X84700952Y-107295714D01*
X84700952Y-107629047D01*
X84653333Y-107819523D01*
X84558095Y-107914761D01*
X84462857Y-107962380D01*
X84272380Y-107962380D01*
X84177142Y-107914761D01*
X84081904Y-107819523D01*
X84034285Y-107629047D01*
X84034285Y-107295714D01*
X84081904Y-107105238D01*
X84177142Y-107010000D01*
X84272380Y-106962380D01*
X85320000Y-106962380D02*
X85510476Y-106962380D01*
X85605714Y-107010000D01*
X85700952Y-107105238D01*
X85748571Y-107295714D01*
X85748571Y-107629047D01*
X85700952Y-107819523D01*
X85605714Y-107914761D01*
X85510476Y-107962380D01*
X85320000Y-107962380D01*
X85224761Y-107914761D01*
X85129523Y-107819523D01*
X85081904Y-107629047D01*
X85081904Y-107295714D01*
X85129523Y-107105238D01*
X85224761Y-107010000D01*
X85320000Y-106962380D01*
X86034285Y-106962380D02*
X86605714Y-106962380D01*
X86320000Y-107962380D02*
X86320000Y-106962380D01*
X87462857Y-107962380D02*
X86891428Y-107962380D01*
X87177142Y-107962380D02*
X87177142Y-106962380D01*
X87081904Y-107105238D01*
X86986666Y-107200476D01*
X86891428Y-107248095D01*
%TO.C,C15*%
X86407142Y-76127142D02*
X86359523Y-76174761D01*
X86216666Y-76222380D01*
X86121428Y-76222380D01*
X85978571Y-76174761D01*
X85883333Y-76079523D01*
X85835714Y-75984285D01*
X85788095Y-75793809D01*
X85788095Y-75650952D01*
X85835714Y-75460476D01*
X85883333Y-75365238D01*
X85978571Y-75270000D01*
X86121428Y-75222380D01*
X86216666Y-75222380D01*
X86359523Y-75270000D01*
X86407142Y-75317619D01*
X87359523Y-76222380D02*
X86788095Y-76222380D01*
X87073809Y-76222380D02*
X87073809Y-75222380D01*
X86978571Y-75365238D01*
X86883333Y-75460476D01*
X86788095Y-75508095D01*
X88264285Y-75222380D02*
X87788095Y-75222380D01*
X87740476Y-75698571D01*
X87788095Y-75650952D01*
X87883333Y-75603333D01*
X88121428Y-75603333D01*
X88216666Y-75650952D01*
X88264285Y-75698571D01*
X88311904Y-75793809D01*
X88311904Y-76031904D01*
X88264285Y-76127142D01*
X88216666Y-76174761D01*
X88121428Y-76222380D01*
X87883333Y-76222380D01*
X87788095Y-76174761D01*
X87740476Y-76127142D01*
%TO.C,C14*%
X118737142Y-87577142D02*
X118689523Y-87624761D01*
X118546666Y-87672380D01*
X118451428Y-87672380D01*
X118308571Y-87624761D01*
X118213333Y-87529523D01*
X118165714Y-87434285D01*
X118118095Y-87243809D01*
X118118095Y-87100952D01*
X118165714Y-86910476D01*
X118213333Y-86815238D01*
X118308571Y-86720000D01*
X118451428Y-86672380D01*
X118546666Y-86672380D01*
X118689523Y-86720000D01*
X118737142Y-86767619D01*
X119689523Y-87672380D02*
X119118095Y-87672380D01*
X119403809Y-87672380D02*
X119403809Y-86672380D01*
X119308571Y-86815238D01*
X119213333Y-86910476D01*
X119118095Y-86958095D01*
X120546666Y-87005714D02*
X120546666Y-87672380D01*
X120308571Y-86624761D02*
X120070476Y-87339047D01*
X120689523Y-87339047D01*
%TO.C,C13*%
X66732142Y-60512142D02*
X66684523Y-60559761D01*
X66541666Y-60607380D01*
X66446428Y-60607380D01*
X66303571Y-60559761D01*
X66208333Y-60464523D01*
X66160714Y-60369285D01*
X66113095Y-60178809D01*
X66113095Y-60035952D01*
X66160714Y-59845476D01*
X66208333Y-59750238D01*
X66303571Y-59655000D01*
X66446428Y-59607380D01*
X66541666Y-59607380D01*
X66684523Y-59655000D01*
X66732142Y-59702619D01*
X67684523Y-60607380D02*
X67113095Y-60607380D01*
X67398809Y-60607380D02*
X67398809Y-59607380D01*
X67303571Y-59750238D01*
X67208333Y-59845476D01*
X67113095Y-59893095D01*
X68017857Y-59607380D02*
X68636904Y-59607380D01*
X68303571Y-59988333D01*
X68446428Y-59988333D01*
X68541666Y-60035952D01*
X68589285Y-60083571D01*
X68636904Y-60178809D01*
X68636904Y-60416904D01*
X68589285Y-60512142D01*
X68541666Y-60559761D01*
X68446428Y-60607380D01*
X68160714Y-60607380D01*
X68065476Y-60559761D01*
X68017857Y-60512142D01*
%TO.C,C12*%
X118737142Y-92657142D02*
X118689523Y-92704761D01*
X118546666Y-92752380D01*
X118451428Y-92752380D01*
X118308571Y-92704761D01*
X118213333Y-92609523D01*
X118165714Y-92514285D01*
X118118095Y-92323809D01*
X118118095Y-92180952D01*
X118165714Y-91990476D01*
X118213333Y-91895238D01*
X118308571Y-91800000D01*
X118451428Y-91752380D01*
X118546666Y-91752380D01*
X118689523Y-91800000D01*
X118737142Y-91847619D01*
X119689523Y-92752380D02*
X119118095Y-92752380D01*
X119403809Y-92752380D02*
X119403809Y-91752380D01*
X119308571Y-91895238D01*
X119213333Y-91990476D01*
X119118095Y-92038095D01*
X120070476Y-91847619D02*
X120118095Y-91800000D01*
X120213333Y-91752380D01*
X120451428Y-91752380D01*
X120546666Y-91800000D01*
X120594285Y-91847619D01*
X120641904Y-91942857D01*
X120641904Y-92038095D01*
X120594285Y-92180952D01*
X120022857Y-92752380D01*
X120641904Y-92752380D01*
%TO.C,C11*%
X123882142Y-52812142D02*
X123834523Y-52859761D01*
X123691666Y-52907380D01*
X123596428Y-52907380D01*
X123453571Y-52859761D01*
X123358333Y-52764523D01*
X123310714Y-52669285D01*
X123263095Y-52478809D01*
X123263095Y-52335952D01*
X123310714Y-52145476D01*
X123358333Y-52050238D01*
X123453571Y-51955000D01*
X123596428Y-51907380D01*
X123691666Y-51907380D01*
X123834523Y-51955000D01*
X123882142Y-52002619D01*
X124834523Y-52907380D02*
X124263095Y-52907380D01*
X124548809Y-52907380D02*
X124548809Y-51907380D01*
X124453571Y-52050238D01*
X124358333Y-52145476D01*
X124263095Y-52193095D01*
X125786904Y-52907380D02*
X125215476Y-52907380D01*
X125501190Y-52907380D02*
X125501190Y-51907380D01*
X125405952Y-52050238D01*
X125310714Y-52145476D01*
X125215476Y-52193095D01*
%TO.C,C10*%
X135732142Y-80702142D02*
X135684523Y-80749761D01*
X135541666Y-80797380D01*
X135446428Y-80797380D01*
X135303571Y-80749761D01*
X135208333Y-80654523D01*
X135160714Y-80559285D01*
X135113095Y-80368809D01*
X135113095Y-80225952D01*
X135160714Y-80035476D01*
X135208333Y-79940238D01*
X135303571Y-79845000D01*
X135446428Y-79797380D01*
X135541666Y-79797380D01*
X135684523Y-79845000D01*
X135732142Y-79892619D01*
X136684523Y-80797380D02*
X136113095Y-80797380D01*
X136398809Y-80797380D02*
X136398809Y-79797380D01*
X136303571Y-79940238D01*
X136208333Y-80035476D01*
X136113095Y-80083095D01*
X137303571Y-79797380D02*
X137398809Y-79797380D01*
X137494047Y-79845000D01*
X137541666Y-79892619D01*
X137589285Y-79987857D01*
X137636904Y-80178333D01*
X137636904Y-80416428D01*
X137589285Y-80606904D01*
X137541666Y-80702142D01*
X137494047Y-80749761D01*
X137398809Y-80797380D01*
X137303571Y-80797380D01*
X137208333Y-80749761D01*
X137160714Y-80702142D01*
X137113095Y-80606904D01*
X137065476Y-80416428D01*
X137065476Y-80178333D01*
X137113095Y-79987857D01*
X137160714Y-79892619D01*
X137208333Y-79845000D01*
X137303571Y-79797380D01*
%TO.C,C4*%
X116358333Y-135352142D02*
X116310714Y-135399761D01*
X116167857Y-135447380D01*
X116072619Y-135447380D01*
X115929761Y-135399761D01*
X115834523Y-135304523D01*
X115786904Y-135209285D01*
X115739285Y-135018809D01*
X115739285Y-134875952D01*
X115786904Y-134685476D01*
X115834523Y-134590238D01*
X115929761Y-134495000D01*
X116072619Y-134447380D01*
X116167857Y-134447380D01*
X116310714Y-134495000D01*
X116358333Y-134542619D01*
X117215476Y-134780714D02*
X117215476Y-135447380D01*
X116977380Y-134399761D02*
X116739285Y-135114047D01*
X117358333Y-135114047D01*
%TO.C,C1*%
X121753333Y-83317142D02*
X121705714Y-83364761D01*
X121562857Y-83412380D01*
X121467619Y-83412380D01*
X121324761Y-83364761D01*
X121229523Y-83269523D01*
X121181904Y-83174285D01*
X121134285Y-82983809D01*
X121134285Y-82840952D01*
X121181904Y-82650476D01*
X121229523Y-82555238D01*
X121324761Y-82460000D01*
X121467619Y-82412380D01*
X121562857Y-82412380D01*
X121705714Y-82460000D01*
X121753333Y-82507619D01*
X122705714Y-83412380D02*
X122134285Y-83412380D01*
X122420000Y-83412380D02*
X122420000Y-82412380D01*
X122324761Y-82555238D01*
X122229523Y-82650476D01*
X122134285Y-82698095D01*
D11*
%TO.C,C7*%
X124586252Y-46960000D02*
X124063748Y-46960000D01*
X124586252Y-45490000D02*
X124063748Y-45490000D01*
%TO.C,U3*%
X132700000Y-82750000D02*
X133150000Y-82750000D01*
X125930000Y-89970000D02*
X125930000Y-89520000D01*
X125930000Y-82750000D02*
X125930000Y-83200000D01*
X132700000Y-89970000D02*
X133150000Y-89970000D01*
X133150000Y-89970000D02*
X133150000Y-89520000D01*
X126380000Y-82750000D02*
X125930000Y-82750000D01*
X126380000Y-89970000D02*
X125930000Y-89970000D01*
X125930000Y-83200000D02*
X124640000Y-83200000D01*
X133150000Y-82750000D02*
X133150000Y-83200000D01*
%TO.C,U2*%
X127980000Y-44850000D02*
X133990000Y-44850000D01*
X133990000Y-44850000D02*
X133990000Y-46110000D01*
X133990000Y-51670000D02*
X133990000Y-50410000D01*
X130230000Y-51670000D02*
X133990000Y-51670000D01*
%TO.C,U1*%
X113260000Y-119660000D02*
X112260000Y-119660000D01*
X113260000Y-120440000D02*
X113260000Y-119660000D01*
X113260000Y-138985000D02*
X113640000Y-138985000D01*
X95020000Y-119660000D02*
X96020000Y-119660000D01*
X95020000Y-120440000D02*
X95020000Y-119660000D01*
X113260000Y-145405000D02*
X113260000Y-138985000D01*
X113260000Y-145405000D02*
X95020000Y-145405000D01*
X95020000Y-145405000D02*
X95020000Y-138985000D01*
%TO.C,STMRST2*%
X108260000Y-72910000D02*
X108260000Y-74410000D01*
X115260000Y-74410000D02*
X115260000Y-72910000D01*
X109510000Y-76910000D02*
X114010000Y-76910000D01*
X114010000Y-70410000D02*
X109510000Y-70410000D01*
%TO.C,STMRST1*%
X108260000Y-62460000D02*
X108260000Y-63960000D01*
X115260000Y-63960000D02*
X115260000Y-62460000D01*
X109510000Y-66460000D02*
X114010000Y-66460000D01*
X114010000Y-59960000D02*
X109510000Y-59960000D01*
%TO.C,STMPROGRAM1*%
X156175000Y-104225000D02*
X158835000Y-104225000D01*
X156175000Y-91465000D02*
X156175000Y-104225000D01*
X158835000Y-88865000D02*
X158835000Y-90195000D01*
X158835000Y-91465000D02*
X158835000Y-104225000D01*
X156175000Y-91465000D02*
X158835000Y-91465000D01*
X157505000Y-88865000D02*
X158835000Y-88865000D01*
%TO.C,R4*%
X115472936Y-80265000D02*
X115927064Y-80265000D01*
X115472936Y-81735000D02*
X115927064Y-81735000D01*
%TO.C,R3*%
X94207064Y-109955000D02*
X93752936Y-109955000D01*
X94207064Y-108485000D02*
X93752936Y-108485000D01*
%TO.C,R2*%
X121692936Y-128805000D02*
X122147064Y-128805000D01*
X121692936Y-130275000D02*
X122147064Y-130275000D01*
%TO.C,R1*%
X103912936Y-67845000D02*
X104367064Y-67845000D01*
X103912936Y-69315000D02*
X104367064Y-69315000D01*
%TO.C,J4*%
X83900000Y-78770000D02*
X83900000Y-101690000D01*
X81300000Y-78770000D02*
X83900000Y-78770000D01*
X83900000Y-76170000D02*
X83900000Y-77500000D01*
X78700000Y-76170000D02*
X78700000Y-101690000D01*
X78700000Y-101690000D02*
X83900000Y-101690000D01*
X78700000Y-76170000D02*
X81300000Y-76170000D01*
X81300000Y-76170000D02*
X81300000Y-78770000D01*
X82570000Y-76170000D02*
X83900000Y-76170000D01*
%TO.C,J3*%
X73260000Y-65700000D02*
X72910000Y-65700000D01*
X81890000Y-65616670D02*
X73260000Y-65616670D01*
X81890000Y-66797620D02*
X73260000Y-66797620D01*
X81890000Y-67270000D02*
X73260000Y-67270000D01*
X81890000Y-66679525D02*
X73260000Y-66679525D01*
X73260000Y-55540000D02*
X72850000Y-55540000D01*
X73260000Y-66420000D02*
X72910000Y-66420000D01*
X81890000Y-66561430D02*
X73260000Y-66561430D01*
X81890000Y-54570000D02*
X73260000Y-54570000D01*
X71800000Y-67390000D02*
X70690000Y-67390000D01*
X81890000Y-65262385D02*
X73260000Y-65262385D01*
X81890000Y-66915715D02*
X73260000Y-66915715D01*
X81890000Y-57170000D02*
X73260000Y-57170000D01*
X81890000Y-67390000D02*
X81890000Y-54570000D01*
X81890000Y-65970955D02*
X73260000Y-65970955D01*
X73260000Y-63160000D02*
X72850000Y-63160000D01*
X81890000Y-66207145D02*
X73260000Y-66207145D01*
X81890000Y-65380480D02*
X73260000Y-65380480D01*
X81890000Y-59710000D02*
X73260000Y-59710000D01*
X73260000Y-63880000D02*
X72850000Y-63880000D01*
X73260000Y-61340000D02*
X72850000Y-61340000D01*
X73260000Y-56260000D02*
X72850000Y-56260000D01*
X73260000Y-58080000D02*
X72850000Y-58080000D01*
X81890000Y-66325240D02*
X73260000Y-66325240D01*
X81890000Y-65026195D02*
X73260000Y-65026195D01*
X81890000Y-65852860D02*
X73260000Y-65852860D01*
X81890000Y-67151905D02*
X73260000Y-67151905D01*
X81890000Y-66443335D02*
X73260000Y-66443335D01*
X81890000Y-65734765D02*
X73260000Y-65734765D01*
X73260000Y-60620000D02*
X72850000Y-60620000D01*
X81890000Y-67033810D02*
X73260000Y-67033810D01*
X70690000Y-67390000D02*
X70690000Y-66060000D01*
X73260000Y-58800000D02*
X72850000Y-58800000D01*
X81890000Y-67390000D02*
X73260000Y-67390000D01*
X81890000Y-62250000D02*
X73260000Y-62250000D01*
X81890000Y-65498575D02*
X73260000Y-65498575D01*
X81890000Y-64790000D02*
X73260000Y-64790000D01*
X73260000Y-67390000D02*
X73260000Y-54570000D01*
X81890000Y-64908100D02*
X73260000Y-64908100D01*
X81890000Y-66089050D02*
X73260000Y-66089050D01*
X81890000Y-65144290D02*
X73260000Y-65144290D01*
%TO.C,J2*%
X146050000Y-80010000D02*
X146050000Y-82610000D01*
X148650000Y-80010000D02*
X148650000Y-62170000D01*
X143450000Y-82610000D02*
X143450000Y-62170000D01*
X148650000Y-80010000D02*
X146050000Y-80010000D01*
X148650000Y-62170000D02*
X143450000Y-62170000D01*
X146050000Y-82610000D02*
X143450000Y-82610000D01*
X148650000Y-81280000D02*
X148650000Y-82610000D01*
X148650000Y-82610000D02*
X147320000Y-82610000D01*
%TO.C,J1*%
X97005000Y-41205000D02*
X97005000Y-38475000D01*
X106075000Y-47885000D02*
X97125000Y-47885000D01*
X106195000Y-38475000D02*
X97005000Y-38475000D01*
X106195000Y-44805000D02*
X106195000Y-43905000D01*
X106195000Y-41205000D02*
X106195000Y-38475000D01*
X97005000Y-44805000D02*
X97005000Y-43905000D01*
%TO.C,FB1*%
X114808000Y-87630000D02*
G75*
G03*
X114808000Y-85090000I-508000J1270000D01*
G01*
X108712000Y-85090000D02*
G75*
G03*
X108712000Y-87630000I508000J-1270000D01*
G01*
X109473999Y-88646001D02*
G75*
G03*
X114284465Y-88379572I2286001J2286001D01*
G01*
X114300000Y-84328000D02*
G75*
G03*
X109459932Y-84059932I-2540000J-2032000D01*
G01*
%TO.C,ESPPROGRAM1*%
X73050000Y-123894520D02*
X81680000Y-123894520D01*
X73050000Y-123540235D02*
X81680000Y-123540235D01*
X73050000Y-122595475D02*
X81680000Y-122595475D01*
X81680000Y-121885000D02*
X81680000Y-137245000D01*
X73050000Y-122949760D02*
X81680000Y-122949760D01*
X73050000Y-132105000D02*
X81680000Y-132105000D01*
X81680000Y-128655000D02*
X82090000Y-128655000D01*
X73050000Y-137245000D02*
X81680000Y-137245000D01*
X73050000Y-121885000D02*
X81680000Y-121885000D01*
X84250000Y-121885000D02*
X84250000Y-123215000D01*
X73050000Y-122477380D02*
X81680000Y-122477380D01*
X73050000Y-129565000D02*
X81680000Y-129565000D01*
X73050000Y-124485000D02*
X81680000Y-124485000D01*
X81680000Y-130475000D02*
X82090000Y-130475000D01*
X73050000Y-123658330D02*
X81680000Y-123658330D01*
X73050000Y-123067855D02*
X81680000Y-123067855D01*
X81680000Y-125395000D02*
X82090000Y-125395000D01*
X73050000Y-123304045D02*
X81680000Y-123304045D01*
X81680000Y-127935000D02*
X82090000Y-127935000D01*
X73050000Y-123776425D02*
X81680000Y-123776425D01*
X73050000Y-122241190D02*
X81680000Y-122241190D01*
X73050000Y-123185950D02*
X81680000Y-123185950D01*
X81680000Y-135555000D02*
X82090000Y-135555000D01*
X73050000Y-123422140D02*
X81680000Y-123422140D01*
X81680000Y-122855000D02*
X82030000Y-122855000D01*
X81680000Y-133015000D02*
X82090000Y-133015000D01*
X73050000Y-124012615D02*
X81680000Y-124012615D01*
X73050000Y-124366900D02*
X81680000Y-124366900D01*
X73050000Y-121885000D02*
X73050000Y-137245000D01*
X73050000Y-122005000D02*
X81680000Y-122005000D01*
X81680000Y-126115000D02*
X82090000Y-126115000D01*
X73050000Y-134645000D02*
X81680000Y-134645000D01*
X73050000Y-122123095D02*
X81680000Y-122123095D01*
X81680000Y-136275000D02*
X82090000Y-136275000D01*
X73050000Y-124248805D02*
X81680000Y-124248805D01*
X73050000Y-122359285D02*
X81680000Y-122359285D01*
X73050000Y-124130710D02*
X81680000Y-124130710D01*
X73050000Y-122713570D02*
X81680000Y-122713570D01*
X73050000Y-122831665D02*
X81680000Y-122831665D01*
X83140000Y-121885000D02*
X84250000Y-121885000D01*
X73050000Y-127025000D02*
X81680000Y-127025000D01*
X81680000Y-133735000D02*
X82090000Y-133735000D01*
X81680000Y-131195000D02*
X82090000Y-131195000D01*
X81680000Y-123575000D02*
X82030000Y-123575000D01*
%TO.C,ESPEN1*%
X130290000Y-129580000D02*
X128790000Y-129580000D01*
X128790000Y-136580000D02*
X130290000Y-136580000D01*
X126290000Y-130830000D02*
X126290000Y-135330000D01*
X132790000Y-135330000D02*
X132790000Y-130830000D01*
%TO.C,ESPBOOT1*%
X80320000Y-111010000D02*
X80320000Y-112510000D01*
X87320000Y-112510000D02*
X87320000Y-111010000D01*
X81570000Y-115010000D02*
X86070000Y-115010000D01*
X86070000Y-108510000D02*
X81570000Y-108510000D01*
%TO.C,C15*%
X86788748Y-76715000D02*
X87311252Y-76715000D01*
X86788748Y-78185000D02*
X87311252Y-78185000D01*
%TO.C,C14*%
X119118748Y-88165000D02*
X119641252Y-88165000D01*
X119118748Y-89635000D02*
X119641252Y-89635000D01*
%TO.C,C13*%
X67636252Y-59210000D02*
X67113748Y-59210000D01*
X67636252Y-57740000D02*
X67113748Y-57740000D01*
%TO.C,C12*%
X119118748Y-93245000D02*
X119641252Y-93245000D01*
X119118748Y-94715000D02*
X119641252Y-94715000D01*
%TO.C,C11*%
X124786252Y-50040000D02*
X124263748Y-50040000D01*
X124786252Y-51510000D02*
X124263748Y-51510000D01*
%TO.C,C10*%
X136113748Y-81290000D02*
X136636252Y-81290000D01*
X136113748Y-82760000D02*
X136636252Y-82760000D01*
%TO.C,C4*%
X116263748Y-137410000D02*
X116786252Y-137410000D01*
X116263748Y-135940000D02*
X116786252Y-135940000D01*
%TO.C,C1*%
X122181252Y-82015000D02*
X121658748Y-82015000D01*
X122181252Y-80545000D02*
X121658748Y-80545000D01*
%TD*%
M02*
